<svg width="18" height="18" viewBox="0 0 18 18" fill="none" xmlns="http://www.w3.org/2000/svg">
<path d="M6 17.4H2C1.23137 17.4 0.6 16.7686 0.6 16V2C0.6 1.23137 1.23137 0.6 2 0.6H6C6.76863 0.6 7.4 1.23137 7.4 2V16C7.4 16.7686 6.76863 17.4 6 17.4ZM16 17.4H12C11.2314 17.4 10.6 16.7686 10.6 16V11C10.6 10.2314 11.2314 9.6 12 9.6H16C16.7686 9.6 17.4 10.2314 17.4 11V16C17.4 16.7686 16.7686 17.4 16 17.4ZM17.4 2V5C17.4 5.76863 16.7686 6.4 16 6.4H12C11.2314 6.4 10.6 5.76863 10.6 5V2C10.6 1.23137 11.2314 0.6 12 0.6H16C16.7686 0.6 17.4 1.23137 17.4 2Z" stroke="#1E1E1E" stroke-width="1.2"/>
</svg>
