<svg width="105" height="23" viewBox="0 0 105 23" fill="none" xmlns="http://www.w3.org/2000/svg">
<path d="M0.74 22.5V0.0999985H11.332C13.8067 0.0999985 15.9827 0.558666 17.86 1.476C19.7373 2.39333 21.1987 3.684 22.244 5.348C23.3107 7.012 23.844 8.996 23.844 11.3C23.844 13.5827 23.3107 15.5667 22.244 17.252C21.1987 18.916 19.7373 20.2067 17.86 21.124C15.9827 22.0413 13.8067 22.5 11.332 22.5H0.74ZM7.076 17.444H11.076C12.356 17.444 13.4653 17.2093 14.404 16.74C15.364 16.2493 16.1107 15.5453 16.644 14.628C17.1773 13.6893 17.444 12.58 17.444 11.3C17.444 9.99867 17.1773 8.88933 16.644 7.972C16.1107 7.05467 15.364 6.36133 14.404 5.892C13.4653 5.40133 12.356 5.156 11.076 5.156H7.076V17.444ZM33.0015 8.772H43.4015V13.508H33.0015V8.772ZM33.4495 17.604H45.1615V22.5H27.1775V0.0999985H44.7455V4.996H33.4495V17.604ZM55.245 22.5L45.677 0.0999985H52.525L60.589 19.492H56.557L64.813 0.0999985H71.085L61.485 22.5H55.245ZM72.3963 22.5V0.0999985H78.7323V22.5H72.3963ZM83.24 22.5V0.0999985H88.456L100.808 15.012H98.344V0.0999985H104.552V22.5H99.336L86.984 7.588H89.448V22.5H83.24Z" fill="white"/>
</svg>
