<svg width="207" height="70" viewBox="0 0 207 70" fill="none" xmlns="http://www.w3.org/2000/svg">
<path d="M39.5 59.5H28.1667C25.05 59.5 22.5 56.95 22.5 53.8333V14.1667C22.5 11.05 25.05 8.5 28.1667 8.5H39.5C42.6167 8.5 45.1667 11.05 45.1667 14.1667V53.8333C45.1667 56.95 42.6167 59.5 39.5 59.5ZM56.5 59.5H67.8333C70.95 59.5 73.5 56.95 73.5 53.8333V39.6667C73.5 36.55 70.95 34 67.8333 34H56.5C53.3833 34 50.8333 36.55 50.8333 39.6667V53.8333C50.8333 56.95 53.3833 59.5 56.5 59.5ZM73.5 22.6667V14.1667C73.5 11.05 70.95 8.5 67.8333 8.5H56.5C53.3833 8.5 50.8333 11.05 50.8333 14.1667V22.6667C50.8333 25.7833 53.3833 28.3333 56.5 28.3333H67.8333C70.95 28.3333 73.5 25.7833 73.5 22.6667Z" fill="white"/>
<path d="M86.74 46.5V24.1H97.332C99.8067 24.1 101.983 24.5587 103.86 25.476C105.737 26.3933 107.199 27.684 108.244 29.348C109.311 31.012 109.844 32.996 109.844 35.3C109.844 37.5827 109.311 39.5667 108.244 41.252C107.199 42.916 105.737 44.2067 103.86 45.124C101.983 46.0413 99.8067 46.5 97.332 46.5H86.74ZM93.076 41.444H97.076C98.356 41.444 99.4653 41.2093 100.404 40.74C101.364 40.2493 102.111 39.5453 102.644 38.628C103.177 37.6893 103.444 36.58 103.444 35.3C103.444 33.9987 103.177 32.8893 102.644 31.972C102.111 31.0547 101.364 30.3613 100.404 29.892C99.4653 29.4013 98.356 29.156 97.076 29.156H93.076V41.444ZM119.002 32.772H129.402V37.508H119.002V32.772ZM119.45 41.604H131.162V46.5H113.178V24.1H130.746V28.996H119.45V41.604ZM141.245 46.5L131.677 24.1H138.525L146.589 43.492H142.557L150.813 24.1H157.085L147.485 46.5H141.245ZM158.396 46.5V24.1H164.732V46.5H158.396ZM169.24 46.5V24.1H174.456L186.808 39.012H184.344V24.1H190.552V46.5H185.336L172.984 31.588H175.448V46.5H169.24Z" fill="white"/>
</svg>
