<svg width="71" height="70" viewBox="0 0 71 70" fill="none" xmlns="http://www.w3.org/2000/svg">
<path d="M26.5 59.5H15.1667C12.05 59.5 9.5 56.95 9.5 53.8333V14.1667C9.5 11.05 12.05 8.5 15.1667 8.5H26.5C29.6167 8.5 32.1667 11.05 32.1667 14.1667V53.8333C32.1667 56.95 29.6167 59.5 26.5 59.5ZM43.5 59.5H54.8333C57.95 59.5 60.5 56.95 60.5 53.8333V39.6667C60.5 36.55 57.95 34 54.8333 34H43.5C40.3833 34 37.8333 36.55 37.8333 39.6667V53.8333C37.8333 56.95 40.3833 59.5 43.5 59.5ZM60.5 22.6667V14.1667C60.5 11.05 57.95 8.5 54.8333 8.5H43.5C40.3833 8.5 37.8333 11.05 37.8333 14.1667V22.6667C37.8333 25.7833 40.3833 28.3333 43.5 28.3333H54.8333C57.95 28.3333 60.5 25.7833 60.5 22.6667Z" fill="white"/>
</svg>
