<svg width="24" height="24" viewBox="0 0 24 24" fill="none" xmlns="http://www.w3.org/2000/svg">
<path d="M12 10.7498C12.4142 10.7498 12.75 11.0856 12.75 11.4998V16.4998C12.75 16.914 12.4142 17.2498 12 17.2498C11.5858 17.2498 11.25 16.914 11.25 16.4998L11.25 11.4998C11.25 11.0856 11.5858 10.7498 12 10.7498Z" fill="black"/>
<path d="M12 8.99982C12.5523 8.99982 13 8.55211 13 7.99982C13 7.44754 12.5523 6.99982 12 6.99982C11.4477 6.99982 11 7.44754 11 7.99982C11 8.55211 11.4477 8.99982 12 8.99982Z" fill="black"/>
<path fill-rule="evenodd" clip-rule="evenodd" d="M7.31673 3.76858C10.4043 3.4235 13.5957 3.4235 16.6832 3.76858C18.5096 3.9727 19.9845 5.41134 20.1994 7.2483C20.5686 10.4052 20.5686 13.5944 20.1994 16.7513C19.9845 18.5883 18.5096 20.0269 16.6832 20.2311C13.5957 20.5761 10.4043 20.5761 7.31673 20.2311C5.49035 20.0269 4.01545 18.5883 3.8006 16.7513C3.43137 13.5944 3.43137 10.4052 3.8006 7.2483C4.01545 5.41134 5.49035 3.9727 7.31673 3.76858ZM16.5166 5.25929C13.5398 4.92659 10.4602 4.92659 7.48334 5.25929C6.33891 5.3872 5.42286 6.29045 5.29045 7.42255C4.93476 10.4637 4.93476 13.5359 5.29045 16.5771C5.42286 17.7092 6.33891 18.6124 7.48334 18.7404C10.4602 19.0731 13.5398 19.0731 16.5166 18.7404C17.6611 18.6124 18.5771 17.7092 18.7095 16.5771C19.0652 13.5359 19.0652 10.4637 18.7095 7.42256C18.5771 6.29045 17.6611 5.3872 16.5166 5.25929Z" fill="black"/>
</svg>
