<svg width="234" height="230" viewBox="0 0 234 230" fill="none" xmlns="http://www.w3.org/2000/svg">
<path d="M234 154.545H144.231V102.597H234V154.545ZM144.779 153.997H233.452V103.145H144.779V153.997Z" fill="#E0E0E0"/>
<path d="M215.481 130.296H156.254V132.033H215.481V130.296Z" fill="#F0F0F0"/>
<path d="M219.562 136.771H156.254V138.666H219.562V136.771Z" fill="#F0F0F0"/>
<path d="M219.562 143.322H156.254V145.217H219.562V143.322Z" fill="#F0F0F0"/>
<path d="M176.953 120.892H156.254V125.4H176.953V120.892Z" fill="#F0F0F0"/>
<path d="M233.726 102.871H144.521V111.142H233.726V102.871Z" fill="#E0E0E0"/>
<path d="M226.863 109.904C226.748 109.794 227.898 108.409 229.426 106.809C230.955 105.21 232.297 103.999 232.406 104.103C232.516 104.208 231.371 105.599 229.843 107.204C228.314 108.809 226.972 110.014 226.863 109.904Z" fill="white"/>
<path d="M232.417 109.904C232.307 110.014 230.971 108.809 229.437 107.204C227.904 105.599 226.759 104.213 226.874 104.103C226.989 103.994 228.32 105.199 229.854 106.809C231.387 108.42 232.521 109.794 232.417 109.904Z" fill="white"/>
<path d="M123.537 0H34.3323V51.4054H123.537V0Z" fill="#E6E6E6"/>
<path d="M105.298 27.4308H46.0704V29.1672H105.298V27.4308Z" fill="#F0F0F0"/>
<path d="M109.378 33.9051H46.0704V35.8003H109.378V33.9051Z" fill="#F0F0F0"/>
<path d="M109.378 40.4561H46.0704V42.3513H109.378V40.4561Z" fill="#F0F0F0"/>
<path d="M66.7695 18.0261H46.0704V22.534H66.7695V18.0261Z" fill="#F0F0F0"/>
<path d="M123.537 0H34.3323V8.27087H123.537V0Z" fill="#E0E0E0"/>
<path d="M116.373 6.99463C116.258 6.89056 117.408 5.4993 118.936 3.8999C120.464 2.3005 121.806 1.09 121.916 1.19954C122.025 1.30909 120.881 2.69487 119.352 4.29427C117.824 5.89367 116.482 7.09323 116.373 6.99463Z" fill="white"/>
<path d="M121.916 6.99464C121.806 7.10419 120.47 5.89916 118.936 4.29429C117.403 2.68941 116.258 1.3091 116.373 1.19956C116.488 1.09001 117.819 2.29503 119.352 3.89991C120.886 5.50479 122.031 6.89057 121.916 6.99464Z" fill="white"/>
<path d="M89.7527 95.493H0V43.5399H89.7527V95.493ZM0.54774 94.9453H89.2049V44.0876H0.54774V94.9453Z" fill="#E0E0E0"/>
<path d="M71.2391 71.2446H12.012V72.9809H71.2391V71.2446Z" fill="#F0F0F0"/>
<path d="M75.3197 77.7188H12.012V79.614H75.3197V77.7188Z" fill="#F0F0F0"/>
<path d="M75.3197 84.2698H12.012V86.165H75.3197V84.2698Z" fill="#F0F0F0"/>
<path d="M32.7111 61.8398H12.012V66.3477H32.7111V61.8398Z" fill="#F0F0F0"/>
<path d="M89.4788 43.8137H0.273926V52.0846H89.4788V43.8137Z" fill="#E0E0E0"/>
<path d="M193.336 107.395H88.0054V201.694H193.336V107.395Z" fill="#E6E6E6"/>
<path d="M93.3021 77.6914H10.7905V163.418H93.3021V77.6914Z" fill="#F0F0F0"/>
<path d="M93.3021 77.6914H10.7905V87.0304H93.3021V77.6914Z" fill="#E0E0E0"/>
<path d="M17.6043 82.2651C17.5893 82.6037 17.4751 82.9305 17.2761 83.2049C17.077 83.4793 16.8017 83.6891 16.4844 83.8085C16.1671 83.9278 15.8218 83.9513 15.4912 83.8761C15.1607 83.8009 14.8595 83.6303 14.625 83.3855C14.3906 83.1406 14.2332 82.8323 14.1724 82.4988C14.1116 82.1653 14.15 81.8213 14.283 81.5095C14.4159 81.1977 14.6375 80.9318 14.9203 80.7447C15.203 80.5577 15.5345 80.4579 15.8734 80.4575C16.3422 80.469 16.7874 80.6656 17.1117 81.0043C17.436 81.3429 17.6131 81.7962 17.6043 82.2651Z" fill="white"/>
<path d="M24.632 82.2651C24.618 82.6053 24.5043 82.934 24.305 83.2101C24.1056 83.4862 23.8295 83.6977 23.511 83.8181C23.1924 83.9385 22.8455 83.9625 22.5133 83.8873C22.1812 83.812 21.8785 83.6407 21.643 83.3947C21.4075 83.1488 21.2495 82.839 21.1887 82.5039C21.1279 82.1688 21.1669 81.8232 21.301 81.5102C21.4351 81.1972 21.6583 80.9305 21.9428 80.7433C22.2273 80.5561 22.5606 80.4567 22.9011 80.4575C23.3699 80.469 23.8151 80.6656 24.1394 81.0043C24.4637 81.3429 24.6408 81.7962 24.632 82.2651Z" fill="white"/>
<path d="M31.6594 82.2651C31.6454 82.6053 31.5317 82.934 31.3324 83.2101C31.1331 83.4862 30.8569 83.6977 30.5384 83.8181C30.2198 83.9385 29.8729 83.9625 29.5407 83.8873C29.2086 83.812 28.906 83.6407 28.6704 83.3947C28.4349 83.1488 28.2769 82.839 28.2161 82.5039C28.1553 82.1688 28.1943 81.8232 28.3284 81.5102C28.4625 81.1972 28.6857 80.9305 28.9702 80.7433C29.2547 80.5561 29.588 80.4567 29.9285 80.4575C30.3973 80.469 30.8425 80.6656 31.1668 81.0043C31.4911 81.3429 31.6682 81.7962 31.6594 82.2651Z" fill="white"/>
<path d="M222.218 18.7491H116.888V123.729H222.218V18.7491Z" fill="#F0F0F0"/>
<path d="M222.218 18.7491H116.888V31.0459H222.218V18.7491Z" fill="#E0E0E0"/>
<path d="M125.86 24.7743C125.84 25.2213 125.69 25.6529 125.428 26.0153C125.165 26.3777 124.802 26.6551 124.384 26.8129C123.965 26.9708 123.509 27.0022 123.073 26.9032C122.636 26.8043 122.239 26.5793 121.929 26.2563C121.619 25.9333 121.411 25.5265 121.331 25.0863C121.25 24.6461 121.301 24.192 121.477 23.7804C121.652 23.3687 121.944 23.0177 122.318 22.7708C122.691 22.5239 123.128 22.392 123.576 22.3916C124.194 22.406 124.782 22.6648 125.21 23.1113C125.638 23.5579 125.871 24.1558 125.86 24.7743Z" fill="white"/>
<path d="M134.443 23.1639C134.746 23.4937 134.946 23.9055 135.018 24.3481C135.089 24.7907 135.028 25.2444 134.844 25.6528C134.659 26.0612 134.358 26.4062 133.978 26.6448C133.599 26.8834 133.157 27.005 132.709 26.9946C132.261 26.9841 131.826 26.842 131.458 26.586C131.09 26.33 130.806 25.9713 130.64 25.5547C130.474 25.1382 130.435 24.6821 130.527 24.2433C130.619 23.8045 130.838 23.4025 131.156 23.0872C131.603 22.6624 132.199 22.432 132.815 22.4463C133.431 22.4607 134.017 22.7188 134.443 23.1639Z" fill="white"/>
<path d="M144.362 24.7743C144.343 25.2213 144.193 25.6529 143.93 26.0153C143.668 26.3777 143.305 26.6551 142.886 26.8129C142.468 26.9708 142.012 27.0022 141.575 26.9032C141.139 26.8043 140.741 26.5793 140.432 26.2563C140.122 25.9333 139.914 25.5265 139.834 25.0863C139.753 24.6461 139.804 24.192 139.979 23.7804C140.155 23.3687 140.447 23.0177 140.82 22.7708C141.193 22.5239 141.631 22.392 142.078 22.3916C142.697 22.406 143.284 22.6648 143.712 23.1113C144.14 23.5579 144.374 24.1558 144.362 24.7743Z" fill="white"/>
<path d="M199.465 229.547C199.465 229.624 161.43 229.689 114.527 229.689C67.624 229.689 29.5725 229.624 29.5725 229.547C29.5725 229.47 67.6021 229.404 114.527 229.404C161.452 229.404 199.465 229.476 199.465 229.547Z" fill="#263238"/>
<path d="M162.405 162.493C153.942 156.582 152.025 145.611 152.359 135.746C152.414 134.103 152.233 132.361 153.017 130.921C153.8 129.48 155.629 128.489 157.103 129.179C158.324 129.754 158.856 131.178 159.54 132.356C160.454 133.924 161.793 135.202 163.402 136.042C164.448 136.59 165.746 136.919 166.781 136.349C168.205 135.566 168.37 133.61 168.359 131.967C168.359 128.911 168.341 125.858 168.304 122.809C168.206 121.171 168.372 119.529 168.797 117.945C169.306 116.389 170.44 114.949 171.99 114.51C173.54 114.072 175.474 114.976 175.825 116.575C175.885 117.253 175.901 117.934 175.874 118.613C175.918 119.298 176.235 120.048 176.876 120.256C177.517 120.464 178.185 119.988 178.678 119.506C180.365 117.863 181.516 115.721 182.584 113.607C183.652 111.492 184.698 109.318 186.232 107.516C187.765 105.714 189.885 104.284 192.257 104.147C194.628 104.01 197.099 105.467 197.69 107.768C198.282 110.068 196.94 112.418 195.499 114.286C193.326 117.058 190.763 119.503 187.891 121.543C187.331 121.85 186.883 122.328 186.615 122.907C186.259 124.003 187.294 125.098 188.373 125.443C189.595 125.849 190.92 125.723 192.207 125.876C193.495 126.029 194.864 126.588 195.351 127.793C196.02 129.469 194.617 131.222 193.243 132.372C190.482 134.673 187.347 136.483 183.975 137.724C182.77 138.162 181.505 138.551 180.53 139.394C179.555 140.238 178.974 141.711 179.56 142.867C180.146 144.023 181.652 144.39 182.918 144.154C184.183 143.919 185.306 143.239 186.511 142.785C188.762 141.936 191.665 142.089 193.084 144.034C193.523 144.704 193.801 145.466 193.897 146.262C193.992 147.057 193.901 147.864 193.632 148.618C193.083 150.12 192.24 151.496 191.15 152.666C187.563 156.952 182.902 160.209 177.643 162.104C172.423 163.911 167.587 164.404 162.399 162.503" fill="#FFB423"/>
<path d="M195.28 105.5C195.28 105.5 195.231 105.555 195.121 105.654L194.634 106.086C194.207 106.47 193.577 107.028 192.783 107.768C190.531 109.859 188.44 112.116 186.527 114.521C185.306 116.039 184.041 117.759 182.693 119.626C181.346 121.494 179.955 123.51 178.574 125.652C177.103 127.91 175.755 130.247 174.537 132.652C173.902 133.906 173.343 135.215 172.768 136.552L171.07 140.632C168.832 145.772 166.883 151.033 165.231 156.391C163.901 160.774 162.984 165.272 162.493 169.827C162.174 172.9 162.123 175.996 162.339 179.078C162.427 180.174 162.509 181.012 162.586 181.581C162.619 181.855 162.64 182.074 162.662 182.233V182.458C162.639 182.386 162.622 182.313 162.613 182.239C162.586 182.08 162.553 181.866 162.509 181.592C162.41 181.044 162.306 180.179 162.208 179.084C161.943 175.995 161.962 172.89 162.263 169.805C162.724 165.231 163.621 160.712 164.941 156.309C166.578 150.936 168.523 145.662 170.763 140.512L172.505 136.447C173.08 135.116 173.645 133.796 174.285 132.537C175.512 130.124 176.87 127.782 178.355 125.52C179.757 123.329 181.171 121.346 182.502 119.495C183.833 117.644 185.12 115.913 186.336 114.401C188.268 112.002 190.387 109.76 192.673 107.697C193.484 106.968 194.13 106.42 194.568 106.053L195.078 105.643C195.14 105.588 195.208 105.54 195.28 105.5Z" fill="#263238"/>
<path d="M174.357 132.526C174.279 132.3 174.226 132.067 174.198 131.83C174.11 131.375 174.011 130.735 173.896 129.902C173.661 128.259 173.42 126.008 173.162 123.515C172.905 121.023 172.615 118.766 172.374 117.14C172.248 116.329 172.138 115.677 172.061 115.223C172.002 114.99 171.97 114.751 171.968 114.511C172.063 114.73 172.131 114.96 172.171 115.195C172.292 115.644 172.428 116.291 172.582 117.107C172.894 118.75 173.201 120.985 173.458 123.482C173.716 125.98 173.935 128.171 174.105 129.875C174.187 130.641 174.258 131.293 174.313 131.814C174.355 132.048 174.37 132.287 174.357 132.526Z" fill="#263238"/>
<path d="M195.434 128.593C195.167 128.651 194.896 128.684 194.623 128.691C194.075 128.741 193.297 128.807 192.333 128.916C190.405 129.124 187.754 129.508 184.846 130.055C181.937 130.603 179.325 131.222 177.446 131.699C176.509 131.94 175.753 132.159 175.255 132.307C174.989 132.401 174.713 132.467 174.433 132.504C174.686 132.376 174.95 132.272 175.222 132.192C175.737 132.011 176.482 131.759 177.413 131.49C179.281 130.943 181.893 130.291 184.813 129.732C187.286 129.259 189.781 128.912 192.29 128.691C193.259 128.609 194.042 128.576 194.59 128.566C194.871 128.546 195.154 128.556 195.434 128.593Z" fill="#263238"/>
<path d="M165.209 155.925C165.151 155.846 165.103 155.759 165.067 155.668L164.705 154.906C164.393 154.244 163.971 153.263 163.467 152.064C162.449 149.654 161.151 146.279 159.77 142.533C158.39 138.786 157.119 135.412 156.155 132.975C155.684 131.792 155.295 130.822 155.005 130.099L154.698 129.316C154.656 129.226 154.626 129.13 154.611 129.031C154.669 129.11 154.717 129.197 154.753 129.289L155.114 130.05C155.421 130.713 155.848 131.693 156.352 132.893C157.371 135.303 158.669 138.677 160.05 142.423C161.43 146.17 162.701 149.544 163.665 151.981C164.136 153.165 164.525 154.134 164.809 154.857C164.935 155.169 165.04 155.405 165.122 155.64C165.164 155.731 165.194 155.827 165.209 155.925Z" fill="#263238"/>
<path d="M193.188 146.904C193.1 146.954 193.006 146.993 192.909 147.019L192.098 147.293L189.102 148.262C186.571 149.084 183.077 150.256 179.242 151.549C175.408 152.841 171.897 153.992 169.35 154.758C168.079 155.147 167.044 155.443 166.327 155.64L165.5 155.854C165.403 155.884 165.304 155.905 165.204 155.914C165.292 155.864 165.385 155.825 165.483 155.799L166.294 155.525L169.29 154.556C171.821 153.734 175.315 152.562 179.149 151.269C182.983 149.977 186.489 148.826 189.036 148.06C190.312 147.671 191.342 147.375 192.065 147.178L192.892 146.964C192.988 146.933 193.087 146.913 193.188 146.904Z" fill="#263238"/>
<path d="M181.773 14.0386L178.952 15.0464L177.742 11.3601C175.518 4.56267 168.43 0.953058 161.917 3.24809C155.405 5.54312 151.938 12.9979 154.161 19.7953L155.372 23.4816L152.54 24.4949C151.46 24.9138 150.583 25.7326 150.092 26.7813C149.6 27.8299 149.531 29.0277 149.9 30.1257L157.749 54.1112C157.912 54.6548 158.182 55.16 158.545 55.5969C158.907 56.0338 159.353 56.3935 159.857 56.6546C160.36 56.9157 160.911 57.0729 161.477 57.1168C162.043 57.1607 162.612 57.0904 163.15 56.9102L192.383 46.4538C193.477 46.0357 194.366 45.2096 194.864 44.1493C195.361 43.0889 195.428 41.8769 195.05 40.7683L187.196 16.7827C187.028 16.2407 186.754 15.7379 186.388 15.3044C186.022 14.8708 185.573 14.5154 185.067 14.2593C184.561 14.0032 184.008 13.8516 183.442 13.8137C182.876 13.7758 182.309 13.8523 181.773 14.0386ZM159.491 17.8727C158.891 16.1053 158.999 14.1744 159.791 12.4846C160.584 10.7947 161.999 9.47705 163.741 8.80765C164.602 8.51331 165.512 8.39528 166.419 8.4606C167.326 8.52591 168.211 8.77324 169.02 9.18782C169.829 9.6024 170.546 10.1757 171.129 10.8736C171.712 11.5715 172.148 12.3797 172.412 13.2498L173.617 16.9361L160.696 21.559L159.491 17.8727ZM175.923 39.1579L177.928 45.2817C177.965 45.4044 177.953 45.5367 177.895 45.6509C177.836 45.7652 177.737 45.8526 177.616 45.8951L174.806 46.8975C174.694 46.9285 174.574 46.915 174.472 46.8599C174.37 46.8047 174.293 46.7122 174.258 46.6017L172.237 40.5054C171.122 40.4446 170.053 40.0449 169.172 39.3597C168.291 38.6744 167.64 37.7364 167.307 36.6712C166.831 35.2629 166.918 33.7249 167.55 32.3793C168.182 31.0336 169.31 29.9847 170.698 29.452C171.383 29.2178 172.108 29.1241 172.831 29.1762C173.553 29.2284 174.257 29.4254 174.902 29.7556C175.546 30.0858 176.118 30.5424 176.582 31.0981C177.047 31.6539 177.394 32.2974 177.605 32.9904C177.957 34.0725 177.986 35.2338 177.688 36.3322C177.391 37.4306 176.779 38.4183 175.929 39.1744L175.923 39.1579Z" fill="#FFB423"/>
<path d="M178.826 14.9807C178.826 15.0574 173.595 17.0238 167.088 19.3626C160.581 21.7015 155.273 23.5802 155.246 23.5254C155.219 23.4707 160.477 21.4878 166.989 19.1435C173.502 16.7992 178.799 14.9095 178.826 14.9807Z" fill="#263238"/>
<path d="M185.037 15.9885C185.062 16.0361 185.082 16.0855 185.098 16.1364C185.142 16.246 185.191 16.3884 185.257 16.5637C185.399 16.9635 185.596 17.5167 185.843 18.2069L187.946 24.3306C188.822 26.9269 189.869 30.0052 191.03 33.4231C191.578 35.1375 192.224 36.9232 192.826 38.8019C193.149 39.7701 193.288 40.7898 193.237 41.809C193.191 42.339 193.04 42.8547 192.793 43.3262C192.53 43.7962 192.179 44.211 191.758 44.5477C190.912 45.1654 189.973 45.6443 188.976 45.9663L186.155 46.9797L180.814 48.8913L171.771 52.112L165.664 54.2591L164.021 54.8069L163.583 54.9493C163.536 54.9701 163.486 54.9831 163.435 54.9876C163.435 54.9876 163.478 54.9876 163.572 54.9219L163.999 54.7521L165.642 54.1331L171.716 51.8984L180.743 48.6119L186.073 46.6839L188.894 45.6651C189.862 45.3561 190.774 44.8918 191.594 44.2903C191.985 43.9778 192.313 43.5928 192.558 43.1564C192.79 42.7203 192.93 42.2412 192.969 41.7487C193.019 40.7668 192.885 39.784 192.574 38.8512C191.983 36.9889 191.358 35.1868 190.794 33.4724C189.655 30.049 188.603 26.9598 187.771 24.3635C186.938 21.7672 186.237 19.6803 185.755 18.2124C185.525 17.4948 185.35 16.9361 185.207 16.5308L185.076 16.0926C185.059 16.0594 185.046 16.0245 185.037 15.9885Z" fill="#263238"/>
<path d="M169.613 8.43519C169.613 8.43519 169.323 8.29278 168.786 8.07369C168.021 7.7797 167.212 7.61675 166.392 7.59167C165.178 7.55003 163.97 7.77826 162.854 8.25992C161.498 8.85968 160.338 9.82978 159.507 11.0589C158.672 12.2845 158.223 13.7328 158.22 15.2162C158.232 16.432 158.416 17.6401 158.768 18.8039C159.053 19.8008 159.349 20.595 159.546 21.1482C159.662 21.4292 159.757 21.7185 159.831 22.0137C159.675 21.7509 159.545 21.474 159.442 21.1866C159.217 20.6388 158.894 19.8611 158.576 18.8587C158.186 17.6826 157.974 16.4549 157.946 15.2162C157.932 13.6767 158.391 12.17 159.261 10.9C160.12 9.62604 161.327 8.62594 162.739 8.01891C163.889 7.53462 165.136 7.32099 166.382 7.39449C167.219 7.43715 168.041 7.63204 168.808 7.96961C169.013 8.06424 169.211 8.1741 169.4 8.29826C169.477 8.33249 169.55 8.37869 169.613 8.43519Z" fill="#263238"/>
<path d="M169.865 29.8683C169.953 29.8153 170.044 29.7695 170.139 29.7313C170.413 29.6076 170.697 29.5068 170.988 29.4301C171.45 29.2938 171.926 29.2129 172.407 29.1891C173.061 29.1539 173.715 29.2527 174.329 29.4794C175.731 29.9723 177.019 31.4019 177.654 33.3135C177.959 34.3394 177.959 35.4317 177.654 36.4576C177.316 37.571 176.711 38.5847 175.89 39.4099L175.923 39.262C176.652 41.2613 177.446 43.4303 178.267 45.6925L178.317 45.8294L178.18 45.8787L176.925 46.295L174.187 47.2097L174.05 47.2535L174.006 47.1166C173.256 44.8489 172.434 42.7347 171.815 40.6587L171.936 40.7518C170.865 40.6629 169.844 40.261 169 39.5961C168.236 39.0079 167.61 38.2602 167.165 37.4052C166.763 36.6469 166.563 35.7981 166.584 34.9403C166.609 34.0636 166.828 33.2034 167.225 32.4212C167.622 31.6391 168.187 30.9543 168.879 30.416C169.164 30.1846 169.484 29.9998 169.827 29.8683C169.517 30.0518 169.218 30.2511 168.928 30.4653C168.168 31.1088 167.585 31.9367 167.236 32.8699C166.936 33.5735 166.796 34.3348 166.825 35.099C166.855 35.8633 167.053 36.6115 167.406 37.2901C167.843 38.1127 168.454 38.8304 169.197 39.3935C170.002 40.0254 170.976 40.4064 171.996 40.4889H172.089L172.116 40.5711C172.719 42.6087 173.546 44.7394 174.307 47.018L174.126 46.9304L176.865 46.0156L178.114 45.5939L178.026 45.7801C177.21 43.5179 176.422 41.3434 175.699 39.3442V39.262L175.764 39.1963C176.561 38.4053 177.154 37.4339 177.495 36.3645C177.786 35.3831 177.786 34.3387 177.495 33.3574C176.898 31.517 175.666 30.1202 174.329 29.6273C173.738 29.3991 173.106 29.2929 172.472 29.315C171.999 29.3259 171.529 29.3902 171.07 29.5067C170.254 29.7094 169.871 29.8956 169.865 29.8683Z" fill="#263238"/>
<path d="M152.934 188.023L98.2207 187.771C95.0611 187.753 92.0375 186.483 89.814 184.238C87.5906 181.993 86.3491 178.957 86.3622 175.797L86.9428 38.6376C86.9492 37.0722 87.2641 35.5234 87.8695 34.0797C88.4749 32.6361 89.3588 31.3259 90.4708 30.2241C91.5828 29.1223 92.9011 28.2504 94.3502 27.6583C95.7993 27.0663 97.351 26.7656 98.9164 26.7735L153.625 27.0255C156.784 27.0414 159.808 28.3108 162.033 30.5548C164.257 32.7988 165.5 35.8339 165.489 38.9936L164.908 176.148C164.902 177.714 164.587 179.263 163.982 180.707C163.376 182.151 162.493 183.462 161.381 184.565C160.269 185.668 158.951 186.541 157.501 187.134C156.052 187.727 154.5 188.029 152.934 188.023Z" fill="#455A64"/>
<path d="M153.542 31.7415H142.938C142.592 31.748 142.251 31.8225 141.934 31.9608C141.616 32.0992 141.33 32.2987 141.09 32.5479C140.849 32.7972 140.661 33.0913 140.534 33.4134C140.408 33.7356 140.346 34.0795 140.353 34.4255V36.348C140.359 36.6938 140.298 37.0374 140.171 37.3592C140.045 37.6811 139.856 37.9748 139.616 38.2236C139.376 38.4724 139.089 38.6714 138.772 38.8092C138.454 38.9469 138.113 39.0208 137.768 39.0265L117.096 38.9334C116.397 38.9147 115.733 38.6193 115.252 38.112C114.77 37.6046 114.509 36.9269 114.527 36.2275V34.305C114.545 33.6065 114.285 32.9296 113.804 32.4224C113.324 31.9152 112.662 31.6192 111.963 31.5991H108.233L98.9492 31.5553C96.7409 31.5422 94.6174 32.4046 93.0436 33.9537C91.4699 35.5029 90.574 37.6125 90.5523 39.8207L90.0046 173.699C89.9996 174.795 90.2103 175.881 90.6249 176.895C91.0395 177.909 91.6497 178.831 92.4208 179.609C93.1919 180.388 94.1087 181.006 95.1189 181.43C96.1291 181.854 97.2128 182.075 98.3083 182.08L152.907 182.332C154.003 182.337 155.09 182.126 156.104 181.711C157.119 181.296 158.042 180.685 158.821 179.914C159.6 179.142 160.219 178.225 160.643 177.214C161.067 176.203 161.288 175.119 161.293 174.023L161.841 40.1439C161.854 37.9294 160.987 35.8004 159.431 34.2248C157.875 32.6492 155.757 31.756 153.542 31.7415Z" fill="white"/>
<path d="M146.197 164.47L105.599 164.295C105.177 164.295 104.837 163.834 104.843 163.276L104.887 152.655C104.887 152.107 105.232 151.636 105.653 151.636L146.252 151.823C146.486 151.863 146.695 151.992 146.836 152.183C146.976 152.374 147.038 152.612 147.008 152.847L146.97 163.457C146.97 164.021 146.619 164.475 146.197 164.47Z" fill="#FFB423"/>
<path d="M120.569 158.357C120.535 158.064 120.394 157.837 120.148 157.675C119.901 157.513 119.599 157.433 119.241 157.433C118.979 157.433 118.75 157.475 118.554 157.56C118.36 157.644 118.207 157.761 118.098 157.909C117.99 158.057 117.936 158.226 117.936 158.414C117.936 158.572 117.974 158.708 118.049 158.822C118.126 158.933 118.224 159.027 118.343 159.102C118.463 159.175 118.588 159.235 118.719 159.284C118.849 159.33 118.97 159.367 119.079 159.396L119.68 159.558C119.834 159.598 120.005 159.654 120.194 159.725C120.385 159.797 120.567 159.894 120.74 160.017C120.915 160.138 121.059 160.294 121.173 160.485C121.287 160.675 121.343 160.909 121.343 161.186C121.343 161.506 121.26 161.795 121.092 162.053C120.927 162.311 120.684 162.516 120.364 162.668C120.047 162.82 119.661 162.896 119.207 162.896C118.783 162.896 118.416 162.827 118.106 162.691C117.798 162.554 117.556 162.364 117.379 162.119C117.204 161.875 117.104 161.591 117.081 161.267H117.821C117.84 161.491 117.915 161.675 118.046 161.822C118.179 161.966 118.346 162.074 118.548 162.145C118.752 162.214 118.972 162.249 119.207 162.249C119.48 162.249 119.725 162.205 119.943 162.116C120.16 162.026 120.333 161.901 120.46 161.741C120.587 161.579 120.65 161.39 120.65 161.175C120.65 160.979 120.595 160.819 120.486 160.696C120.376 160.572 120.232 160.472 120.053 160.395C119.874 160.318 119.68 160.251 119.472 160.193L118.745 159.985C118.283 159.852 117.917 159.663 117.647 159.416C117.378 159.17 117.243 158.848 117.243 158.449C117.243 158.118 117.333 157.829 117.512 157.583C117.693 157.334 117.935 157.142 118.239 157.005C118.545 156.867 118.887 156.797 119.264 156.797C119.645 156.797 119.984 156.866 120.281 157.002C120.577 157.137 120.812 157.322 120.985 157.557C121.16 157.792 121.253 158.058 121.262 158.357H120.569ZM123.237 156.878V162.792H122.521V156.878H123.237ZM129.362 156.878V162.792H128.669L125.447 158.149H125.389V162.792H124.673V156.878H125.366L128.6 161.533H128.657V156.878H129.362ZM121.378 168.726C121.314 168.532 121.231 168.358 121.127 168.204C121.025 168.048 120.902 167.915 120.76 167.805C120.62 167.695 120.46 167.612 120.281 167.554C120.102 167.496 119.905 167.467 119.692 167.467C119.341 167.467 119.023 167.558 118.736 167.739C118.449 167.92 118.221 168.186 118.052 168.539C117.882 168.891 117.797 169.323 117.797 169.835C117.797 170.347 117.883 170.779 118.054 171.132C118.226 171.484 118.458 171.75 118.75 171.931C119.043 172.112 119.372 172.203 119.738 172.203C120.077 172.203 120.375 172.131 120.633 171.986C120.893 171.84 121.095 171.634 121.239 171.368C121.386 171.101 121.459 170.786 121.459 170.424L121.678 170.47H119.9V169.835H122.152V170.47C122.152 170.957 122.048 171.381 121.84 171.741C121.634 172.101 121.349 172.38 120.985 172.578C120.623 172.775 120.208 172.873 119.738 172.873C119.214 172.873 118.754 172.75 118.358 172.503C117.963 172.257 117.655 171.906 117.434 171.452C117.214 170.998 117.104 170.459 117.104 169.835C117.104 169.367 117.167 168.947 117.292 168.573C117.419 168.198 117.598 167.878 117.829 167.615C118.06 167.351 118.334 167.149 118.649 167.008C118.965 166.868 119.312 166.797 119.692 166.797C120.004 166.797 120.294 166.845 120.564 166.939C120.835 167.031 121.077 167.163 121.288 167.334C121.502 167.504 121.68 167.707 121.823 167.944C121.965 168.179 122.063 168.439 122.117 168.726H121.378ZM121.216 176.878H121.932V180.794C121.932 181.198 121.837 181.559 121.647 181.877C121.458 182.192 121.191 182.442 120.847 182.624C120.502 182.805 120.098 182.896 119.634 182.896C119.17 182.896 118.766 182.805 118.421 182.624C118.077 182.442 117.809 182.192 117.618 181.877C117.43 181.559 117.335 181.198 117.335 180.794V176.878H118.052V180.736C118.052 181.025 118.115 181.282 118.242 181.507C118.369 181.73 118.55 181.906 118.785 182.035C119.022 182.162 119.305 182.226 119.634 182.226C119.963 182.226 120.246 182.162 120.483 182.035C120.72 181.906 120.901 181.73 121.026 181.507C121.153 181.282 121.216 181.025 121.216 180.736V176.878ZM123.362 182.792V176.878H125.361C125.825 176.878 126.204 176.962 126.498 177.129C126.795 177.295 127.014 177.519 127.157 177.802C127.299 178.085 127.37 178.401 127.37 178.749C127.37 179.098 127.299 179.414 127.157 179.699C127.016 179.984 126.799 180.211 126.504 180.381C126.21 180.548 125.832 180.632 125.372 180.632H123.94V179.997H125.349C125.667 179.997 125.922 179.942 126.114 179.832C126.307 179.722 126.446 179.574 126.533 179.387C126.621 179.199 126.666 178.986 126.666 178.749C126.666 178.513 126.621 178.301 126.533 178.114C126.446 177.927 126.306 177.781 126.111 177.675C125.917 177.567 125.659 177.513 125.338 177.513H124.079V182.792H123.362Z" fill="#E8E8E3"/>
<path d="M113.697 71.0968L99.6089 71.0328L99.5972 73.6181L113.685 73.6821L113.697 71.0968Z" fill="#FFB423"/>
<path opacity="0.1" d="M113.697 71.0968L99.6089 71.0328L99.5972 73.6181L113.685 73.6821L113.697 71.0968Z" fill="black"/>
<path d="M154.994 86.9701C155.105 86.959 155.213 86.9332 155.317 86.8935C155.469 86.8342 155.601 86.7334 155.697 86.6026C155.794 86.4718 155.852 86.3163 155.865 86.154C155.865 85.2831 155.865 84.0123 155.865 82.3801C155.865 81.564 155.865 80.6492 155.865 79.6414C155.865 79.3949 155.865 79.1375 155.865 78.88C155.901 78.6302 155.846 78.3759 155.712 78.1625C155.636 78.0602 155.538 77.9767 155.425 77.9188C155.312 77.8608 155.187 77.8299 155.06 77.8284H154.205H146.29L100.477 77.6586C100.36 77.6566 100.244 77.6829 100.139 77.7354C100.034 77.7878 99.9437 77.8648 99.8749 77.9598C99.7426 78.1741 99.6921 78.4288 99.7325 78.6774C99.7325 79.2251 99.7325 79.7728 99.7325 80.3206C99.7325 81.4161 99.7325 82.5115 99.7325 83.607C99.7325 84.1548 99.7325 84.7025 99.7325 85.2502C99.7098 85.5054 99.7098 85.762 99.7325 86.0171C99.7613 86.1264 99.8147 86.2278 99.8888 86.3132C99.9629 86.3987 100.056 86.466 100.16 86.51C100.268 86.553 100.383 86.5735 100.499 86.5703H103.287L115.453 86.636L136.048 86.762L149.933 86.8715L153.707 86.9154H154.687C154.912 86.9154 155.021 86.9154 155.021 86.9154H154.687H153.707H149.933H136.048L115.453 86.8496L103.287 86.8003H100.499C100.346 86.8066 100.193 86.7804 100.05 86.7237C99.9059 86.6621 99.7777 86.5684 99.6752 86.4498C99.5726 86.3311 99.4986 86.1906 99.4586 86.039C99.4269 85.8952 99.4158 85.7477 99.4257 85.6008V85.1955C99.4257 84.6477 99.4257 84.1 99.4257 83.5522C99.4257 82.4568 99.4257 81.3613 99.4257 80.2658C99.4257 79.7181 99.4257 79.1703 99.4257 78.6226C99.4153 78.4767 99.4153 78.3303 99.4257 78.1844C99.4463 78.0233 99.5086 77.8703 99.6065 77.7407C99.701 77.6085 99.826 77.5011 99.971 77.4277C100.116 77.3542 100.277 77.3169 100.439 77.319L146.252 77.5709L154.167 77.6257H155.021C155.172 77.6258 155.32 77.6622 155.454 77.7318C155.587 77.8014 155.702 77.9022 155.788 78.0256C155.943 78.2637 156.005 78.55 155.963 78.8307C155.963 79.0882 155.963 79.3456 155.963 79.5921C155.963 80.589 155.963 81.5037 155.963 82.3308C155.963 83.974 155.925 85.2338 155.914 86.1102C155.901 86.2787 155.84 86.4399 155.738 86.5748C155.636 86.7096 155.497 86.8126 155.339 86.8715C155.235 86.9358 155.116 86.9699 154.994 86.9701Z" fill="#E0E0E0"/>
<path d="M129.606 80.4082H103.841V82.8238H129.606V80.4082Z" fill="#FFB423"/>
<path opacity="0.2" d="M129.606 80.4082H103.841V82.8238H129.606V80.4082Z" fill="white"/>
<path d="M113.601 94.6817L99.5128 94.6178L99.5011 97.2031L113.589 97.2671L113.601 94.6817Z" fill="#FFB423"/>
<path opacity="0.1" d="M113.601 94.6817L99.5128 94.6178L99.5011 97.2031L113.589 97.2671L113.601 94.6817Z" fill="black"/>
<path d="M154.638 110.556C154.749 110.542 154.858 110.522 154.967 110.496C155.12 110.447 155.26 110.366 155.379 110.258C155.498 110.151 155.593 110.019 155.657 109.871C155.743 109.65 155.777 109.412 155.755 109.176C155.755 108.913 155.755 108.628 155.755 108.31C155.755 107.675 155.755 106.952 155.755 106.119V102.641C155.781 102.389 155.726 102.136 155.596 101.918C155.461 101.695 155.249 101.529 154.999 101.452C154.727 101.404 154.449 101.389 154.172 101.409H146.29L100.636 101.239C100.391 101.239 100.154 101.329 99.9693 101.491C99.785 101.654 99.6658 101.877 99.6339 102.121C99.6339 102.641 99.6339 103.216 99.6339 103.764C99.6339 104.859 99.6339 105.955 99.6339 107.05C99.6339 107.598 99.6339 108.146 99.6339 108.694C99.6135 108.95 99.6245 109.207 99.6668 109.46C99.7352 109.682 99.8759 109.875 100.067 110.008C100.269 110.136 100.507 110.198 100.746 110.183H101.507H103.09L115.212 110.244L135.735 110.37L149.571 110.479L153.334 110.523H154.315H154.643H154.315H153.334H149.571H135.735L115.201 110.501L103.079 110.457H100.697C100.4 110.475 100.106 110.396 99.8585 110.233C99.6092 110.06 99.4273 109.807 99.3436 109.515C99.2945 109.237 99.2798 108.954 99.2998 108.672C99.2998 108.124 99.2998 107.576 99.2998 107.028C99.2998 105.933 99.2998 104.837 99.2998 103.742C99.2998 103.194 99.2998 102.646 99.2998 102.099C99.3397 101.786 99.4925 101.498 99.7294 101.289C99.9664 101.08 100.271 100.965 100.587 100.965L146.241 101.217L154.123 101.277C154.417 101.259 154.711 101.279 154.999 101.337C155.284 101.43 155.524 101.626 155.673 101.885C155.815 102.126 155.876 102.406 155.848 102.685C155.848 102.942 155.848 103.194 155.848 103.446C155.848 104.438 155.848 105.347 155.848 106.185C155.848 107.023 155.848 107.73 155.848 108.376C155.848 108.688 155.848 108.978 155.848 109.247C155.868 109.492 155.829 109.738 155.733 109.964C155.662 110.115 155.559 110.249 155.432 110.357C155.304 110.465 155.155 110.544 154.994 110.589C154.874 110.599 154.754 110.587 154.638 110.556Z" fill="#E0E0E0"/>
<path d="M113.494 119.291L99.4067 119.227L99.3949 121.812L113.483 121.876L113.494 119.291Z" fill="#FFB423"/>
<path opacity="0.1" d="M113.494 119.291L99.4067 119.227L99.3949 121.812L113.483 121.876L113.494 119.291Z" fill="black"/>
<path d="M154.528 135.155C154.639 135.142 154.749 135.122 154.857 135.095C155.009 135.046 155.15 134.966 155.269 134.859C155.388 134.753 155.483 134.622 155.547 134.476C155.633 134.254 155.667 134.016 155.646 133.78C155.646 133.512 155.646 133.232 155.646 132.909C155.646 132.279 155.646 131.551 155.646 130.718V127.24C155.672 126.988 155.616 126.735 155.487 126.517C155.349 126.298 155.137 126.135 154.89 126.057C154.617 126.006 154.339 125.99 154.063 126.008H146.181L100.527 125.838C100.281 125.838 100.044 125.928 99.8597 126.09C99.6754 126.253 99.5562 126.476 99.5243 126.72C99.5243 127.267 99.5243 127.815 99.5243 128.363C99.5243 129.458 99.5243 130.554 99.5243 131.649C99.5243 132.197 99.5243 132.745 99.5243 133.293C99.5039 133.547 99.5149 133.802 99.5572 134.054C99.6228 134.277 99.7641 134.471 99.957 134.602C100.158 134.733 100.397 134.794 100.636 134.777H103.019L115.14 134.843L135.664 134.969L149.5 135.078L153.263 135.122H154.244C154.463 135.122 154.572 135.122 154.572 135.122C154.572 135.122 154.463 135.122 154.244 135.122H153.263H149.5H135.664L115.14 135.062L103.019 135.012H100.636C100.34 135.032 100.045 134.953 99.7982 134.788C99.5489 134.615 99.367 134.362 99.2833 134.07C99.2342 133.792 99.2195 133.509 99.2395 133.227C99.2395 132.679 99.2395 132.131 99.2395 131.584C99.2395 130.488 99.2395 129.393 99.2395 128.297C99.2395 127.749 99.2395 127.202 99.2395 126.627C99.2782 126.314 99.4298 126.026 99.6659 125.817C99.9019 125.608 100.206 125.493 100.521 125.493L146.175 125.745L154.057 125.805C154.351 125.787 154.645 125.807 154.934 125.865C155.218 125.958 155.458 126.153 155.607 126.413C155.749 126.654 155.81 126.934 155.783 127.213C155.783 127.47 155.783 127.727 155.783 127.974C155.783 128.965 155.783 129.875 155.783 130.713C155.783 131.551 155.783 132.257 155.783 132.904C155.783 133.216 155.783 133.506 155.783 133.775C155.804 134.02 155.764 134.266 155.668 134.492C155.597 134.643 155.494 134.777 155.366 134.885C155.238 134.993 155.089 135.072 154.928 135.116C154.8 135.16 154.663 135.174 154.528 135.155Z" fill="#E0E0E0"/>
<path d="M129.056 104.677L103.291 104.56L103.28 106.975L129.045 107.092L129.056 104.677Z" fill="#FFB423"/>
<path opacity="0.2" d="M129.056 104.677L103.291 104.56L103.28 106.975L129.045 107.092L129.056 104.677Z" fill="white"/>
<path d="M105.621 130.685C105.605 130.906 105.524 131.116 105.389 131.291C105.254 131.466 105.071 131.598 104.862 131.67C104.653 131.742 104.428 131.75 104.214 131.695C104 131.64 103.807 131.524 103.659 131.36C103.51 131.196 103.414 130.992 103.38 130.774C103.347 130.556 103.378 130.332 103.47 130.131C103.562 129.931 103.712 129.762 103.899 129.645C104.087 129.528 104.304 129.469 104.525 129.475C104.83 129.492 105.116 129.628 105.322 129.855C105.527 130.082 105.634 130.38 105.621 130.685Z" fill="#FFB423"/>
<path d="M109.11 130.702C109.121 130.856 109.099 131.011 109.048 131.157C108.996 131.303 108.915 131.437 108.809 131.55C108.704 131.663 108.576 131.753 108.434 131.815C108.292 131.877 108.139 131.909 107.984 131.909C107.829 131.909 107.676 131.877 107.534 131.815C107.392 131.753 107.265 131.663 107.159 131.55C107.053 131.437 106.972 131.303 106.921 131.157C106.869 131.011 106.848 130.856 106.859 130.702C106.848 130.547 106.869 130.392 106.921 130.246C106.972 130.1 107.053 129.967 107.159 129.854C107.265 129.74 107.392 129.65 107.534 129.588C107.676 129.527 107.829 129.495 107.984 129.495C108.139 129.495 108.292 129.527 108.434 129.588C108.576 129.65 108.704 129.74 108.809 129.854C108.915 129.967 108.996 130.1 109.048 130.246C109.099 130.392 109.121 130.547 109.11 130.702Z" fill="#FFB423"/>
<path d="M112.604 130.718C112.588 130.938 112.508 131.149 112.373 131.324C112.238 131.499 112.055 131.631 111.846 131.703C111.637 131.774 111.412 131.783 111.198 131.728C110.984 131.673 110.791 131.557 110.642 131.393C110.494 131.229 110.397 131.025 110.364 130.807C110.33 130.588 110.362 130.365 110.454 130.164C110.546 129.964 110.695 129.794 110.883 129.678C111.07 129.561 111.288 129.502 111.509 129.508C111.814 129.526 112.099 129.663 112.304 129.889C112.508 130.116 112.616 130.413 112.604 130.718Z" fill="#FFB423"/>
<path d="M116.093 130.735C116.077 130.955 115.997 131.166 115.862 131.341C115.727 131.516 115.544 131.647 115.335 131.719C115.126 131.791 114.901 131.8 114.687 131.745C114.473 131.69 114.28 131.573 114.132 131.409C113.983 131.245 113.886 131.042 113.853 130.823C113.819 130.605 113.851 130.382 113.943 130.181C114.035 129.98 114.184 129.811 114.372 129.694C114.559 129.577 114.777 129.518 114.998 129.524C115.303 129.542 115.588 129.68 115.793 129.906C115.997 130.132 116.105 130.43 116.093 130.735Z" fill="#FFB423"/>
<path d="M119.583 130.746C119.567 130.966 119.488 131.178 119.354 131.353C119.219 131.529 119.036 131.661 118.828 131.734C118.619 131.807 118.393 131.816 118.179 131.762C117.964 131.707 117.771 131.591 117.622 131.427C117.473 131.264 117.376 131.06 117.342 130.841C117.308 130.623 117.339 130.399 117.431 130.198C117.523 129.997 117.673 129.828 117.86 129.711C118.048 129.594 118.266 129.535 118.487 129.54C118.791 129.559 119.075 129.695 119.28 129.92C119.485 130.145 119.593 130.441 119.583 130.746Z" fill="#FFB423"/>
<path d="M123.077 130.762C123.062 130.981 122.983 131.192 122.85 131.367C122.718 131.542 122.536 131.675 122.329 131.749C122.122 131.822 121.897 131.834 121.683 131.781C121.47 131.729 121.276 131.615 121.126 131.454C120.976 131.294 120.876 131.092 120.839 130.875C120.802 130.658 120.829 130.435 120.917 130.234C121.005 130.032 121.15 129.861 121.335 129.74C121.519 129.62 121.734 129.556 121.954 129.557C122.263 129.568 122.554 129.702 122.765 129.927C122.975 130.153 123.088 130.453 123.077 130.762Z" fill="#FFB423"/>
<path d="M126.566 130.778C126.577 130.933 126.556 131.088 126.504 131.234C126.453 131.38 126.371 131.513 126.266 131.627C126.16 131.74 126.033 131.83 125.891 131.892C125.749 131.953 125.595 131.985 125.441 131.985C125.286 131.985 125.133 131.953 124.991 131.892C124.849 131.83 124.721 131.74 124.615 131.627C124.51 131.513 124.429 131.38 124.377 131.234C124.325 131.088 124.304 130.933 124.315 130.778C124.304 130.624 124.325 130.469 124.377 130.323C124.429 130.177 124.51 130.043 124.615 129.93C124.721 129.817 124.849 129.727 124.991 129.665C125.133 129.603 125.286 129.571 125.441 129.571C125.595 129.571 125.749 129.603 125.891 129.665C126.033 129.727 126.16 129.817 126.266 129.93C126.371 130.043 126.453 130.177 126.504 130.323C126.556 130.469 126.577 130.624 126.566 130.778Z" fill="#FFB423"/>
<path d="M130.055 130.795C130.04 131.014 129.962 131.225 129.829 131.4C129.696 131.575 129.514 131.708 129.307 131.782C129.1 131.855 128.875 131.866 128.662 131.814C128.448 131.762 128.254 131.648 128.104 131.487C127.954 131.326 127.855 131.125 127.817 130.908C127.78 130.691 127.808 130.468 127.896 130.267C127.984 130.065 128.129 129.894 128.313 129.773C128.497 129.653 128.713 129.589 128.933 129.59C129.241 129.601 129.532 129.734 129.743 129.96C129.953 130.186 130.066 130.486 130.055 130.795Z" fill="#FFB423"/>
<path d="M133.544 130.811C133.529 131.032 133.45 131.243 133.315 131.419C133.181 131.595 132.998 131.727 132.789 131.8C132.581 131.873 132.355 131.882 132.141 131.828C131.926 131.773 131.733 131.657 131.584 131.493C131.435 131.33 131.338 131.126 131.304 130.907C131.27 130.689 131.301 130.465 131.393 130.264C131.485 130.063 131.634 129.893 131.822 129.776C132.01 129.659 132.228 129.6 132.449 129.606C132.753 129.625 133.037 129.761 133.242 129.986C133.446 130.211 133.555 130.507 133.544 130.811Z" fill="#FFB423"/>
<g opacity="0.2">
<path d="M105.621 130.685C105.605 130.906 105.524 131.116 105.389 131.291C105.254 131.466 105.071 131.598 104.862 131.67C104.653 131.742 104.428 131.75 104.214 131.695C104 131.64 103.807 131.524 103.659 131.36C103.51 131.196 103.414 130.992 103.38 130.774C103.347 130.556 103.378 130.332 103.47 130.131C103.562 129.931 103.712 129.762 103.899 129.645C104.087 129.528 104.304 129.469 104.525 129.475C104.83 129.492 105.116 129.628 105.322 129.855C105.527 130.082 105.634 130.38 105.621 130.685Z" fill="white"/>
<path d="M109.11 130.702C109.121 130.856 109.099 131.011 109.048 131.157C108.996 131.303 108.915 131.437 108.809 131.55C108.704 131.663 108.576 131.753 108.434 131.815C108.292 131.877 108.139 131.909 107.984 131.909C107.829 131.909 107.676 131.877 107.534 131.815C107.392 131.753 107.265 131.663 107.159 131.55C107.053 131.437 106.972 131.303 106.921 131.157C106.869 131.011 106.848 130.856 106.859 130.702C106.848 130.547 106.869 130.392 106.921 130.246C106.972 130.1 107.053 129.967 107.159 129.854C107.265 129.74 107.392 129.65 107.534 129.588C107.676 129.527 107.829 129.495 107.984 129.495C108.139 129.495 108.292 129.527 108.434 129.588C108.576 129.65 108.704 129.74 108.809 129.854C108.915 129.967 108.996 130.1 109.048 130.246C109.099 130.392 109.121 130.547 109.11 130.702Z" fill="white"/>
<path d="M112.604 130.718C112.588 130.938 112.508 131.149 112.373 131.324C112.238 131.499 112.055 131.631 111.846 131.703C111.637 131.774 111.412 131.783 111.198 131.728C110.984 131.673 110.791 131.557 110.642 131.393C110.494 131.229 110.397 131.025 110.364 130.807C110.33 130.588 110.362 130.365 110.454 130.164C110.546 129.964 110.695 129.794 110.883 129.678C111.07 129.561 111.288 129.502 111.509 129.508C111.814 129.526 112.099 129.663 112.304 129.889C112.508 130.116 112.616 130.413 112.604 130.718Z" fill="white"/>
<path d="M116.093 130.735C116.077 130.955 115.997 131.166 115.862 131.341C115.727 131.516 115.544 131.647 115.335 131.719C115.126 131.791 114.901 131.8 114.687 131.745C114.473 131.69 114.28 131.573 114.132 131.409C113.983 131.245 113.886 131.042 113.853 130.823C113.819 130.605 113.851 130.381 113.943 130.181C114.035 129.98 114.184 129.811 114.372 129.694C114.559 129.577 114.777 129.518 114.998 129.524C115.303 129.542 115.588 129.679 115.793 129.906C115.997 130.132 116.105 130.43 116.093 130.735Z" fill="white"/>
<path d="M119.583 130.746C119.567 130.966 119.488 131.178 119.354 131.353C119.219 131.529 119.036 131.661 118.828 131.734C118.619 131.807 118.393 131.816 118.179 131.762C117.964 131.707 117.771 131.591 117.622 131.427C117.473 131.264 117.376 131.06 117.342 130.841C117.308 130.623 117.339 130.399 117.431 130.198C117.523 129.997 117.673 129.828 117.86 129.711C118.048 129.594 118.266 129.535 118.487 129.54C118.791 129.559 119.075 129.695 119.28 129.92C119.485 130.145 119.593 130.441 119.583 130.746Z" fill="white"/>
<path d="M123.077 130.762C123.062 130.981 122.983 131.192 122.85 131.367C122.718 131.542 122.536 131.675 122.329 131.749C122.122 131.822 121.897 131.834 121.683 131.781C121.47 131.729 121.276 131.615 121.126 131.454C120.976 131.294 120.876 131.092 120.839 130.875C120.802 130.658 120.829 130.435 120.917 130.234C121.005 130.032 121.15 129.861 121.335 129.74C121.519 129.62 121.734 129.556 121.954 129.557C122.263 129.568 122.554 129.702 122.765 129.927C122.975 130.153 123.088 130.453 123.077 130.762Z" fill="white"/>
<path d="M126.566 130.778C126.577 130.933 126.556 131.088 126.504 131.234C126.453 131.38 126.371 131.513 126.266 131.627C126.16 131.74 126.033 131.83 125.891 131.892C125.749 131.953 125.595 131.985 125.441 131.985C125.286 131.985 125.133 131.953 124.991 131.892C124.849 131.83 124.721 131.74 124.615 131.627C124.51 131.513 124.429 131.38 124.377 131.234C124.325 131.088 124.304 130.933 124.315 130.778C124.304 130.624 124.325 130.469 124.377 130.323C124.429 130.177 124.51 130.043 124.615 129.93C124.721 129.817 124.849 129.727 124.991 129.665C125.133 129.603 125.286 129.572 125.441 129.572C125.595 129.572 125.749 129.603 125.891 129.665C126.033 129.727 126.16 129.817 126.266 129.93C126.371 130.043 126.453 130.177 126.504 130.323C126.556 130.469 126.577 130.624 126.566 130.778Z" fill="white"/>
<path d="M130.055 130.795C130.04 131.014 129.962 131.225 129.829 131.4C129.696 131.575 129.514 131.708 129.307 131.782C129.1 131.855 128.875 131.866 128.662 131.814C128.448 131.762 128.254 131.648 128.104 131.487C127.954 131.326 127.855 131.125 127.817 130.908C127.78 130.691 127.808 130.468 127.896 130.267C127.984 130.065 128.129 129.894 128.313 129.773C128.497 129.653 128.713 129.589 128.933 129.59C129.241 129.601 129.532 129.734 129.743 129.96C129.953 130.186 130.066 130.486 130.055 130.795Z" fill="white"/>
<path d="M133.544 130.811C133.529 131.032 133.45 131.243 133.315 131.419C133.181 131.595 132.998 131.727 132.789 131.8C132.581 131.873 132.355 131.882 132.141 131.828C131.926 131.773 131.733 131.657 131.584 131.493C131.435 131.33 131.338 131.126 131.304 130.907C131.27 130.689 131.301 130.465 131.393 130.264C131.485 130.063 131.634 129.893 131.822 129.776C132.01 129.659 132.228 129.6 132.449 129.606C132.753 129.625 133.037 129.761 133.242 129.986C133.446 130.211 133.555 130.507 133.544 130.811Z" fill="white"/>
</g>
<path d="M128.588 51.7395C128.968 51.5719 129.291 51.2962 129.516 50.9466C129.741 50.5969 129.858 50.1888 129.853 49.7731C129.867 49.5029 129.826 49.2326 129.732 48.9787C129.639 48.7248 129.494 48.4926 129.308 48.2963C129.122 48.1 128.897 47.9436 128.649 47.8368C128.4 47.73 128.132 47.6749 127.862 47.6749C127.591 47.6749 127.323 47.73 127.075 47.8368C126.826 47.9436 126.602 48.1 126.415 48.2963C126.229 48.4926 126.085 48.7248 125.991 48.9787C125.898 49.2326 125.857 49.5029 125.871 49.7731C125.862 50.193 125.979 50.606 126.205 50.9598C126.431 51.3137 126.757 51.5926 127.141 51.7614C124.074 52.2215 124.211 55.5518 124.211 55.5518L131.463 55.5846C131.463 55.5846 131.633 52.1941 128.588 51.7395Z" fill="#FFB423"/>
<path opacity="0.1" d="M128.588 51.7395C128.968 51.5719 129.291 51.2962 129.516 50.9466C129.741 50.5969 129.858 50.1888 129.853 49.7731C129.867 49.5029 129.826 49.2326 129.732 48.9787C129.639 48.7248 129.494 48.4926 129.308 48.2963C129.122 48.1 128.897 47.9436 128.649 47.8368C128.4 47.73 128.132 47.6749 127.862 47.6749C127.591 47.6749 127.323 47.73 127.075 47.8368C126.826 47.9436 126.602 48.1 126.415 48.2963C126.229 48.4926 126.085 48.7248 125.991 48.9787C125.898 49.2326 125.857 49.5029 125.871 49.7731C125.862 50.193 125.979 50.606 126.205 50.9598C126.431 51.3137 126.757 51.5926 127.141 51.7614C124.074 52.2215 124.211 55.5518 124.211 55.5518L131.463 55.5846C131.463 55.5846 131.633 52.1941 128.588 51.7395Z" fill="black"/>
<path d="M140.372 57.7326L114.524 57.6153L114.51 60.7045L140.358 60.8218L140.372 57.7326Z" fill="#FFB423"/>
<path opacity="0.2" d="M140.372 57.7326L114.524 57.6153L114.51 60.7045L140.358 60.8218L140.372 57.7326Z" fill="white"/>
<path d="M45.3474 73.7423H45.09L44.3451 73.797C43.942 73.8213 43.5411 73.8743 43.1455 73.9559C42.8893 73.9919 42.6352 74.0412 42.3842 74.1038L41.5352 74.3393C40.0901 74.7826 38.7268 75.4578 37.4983 76.3385C35.8753 77.5166 34.5201 79.0249 33.5217 80.7643C32.935 81.7669 32.468 82.835 32.1305 83.9467C31.7758 85.1548 31.5716 86.4021 31.5225 87.6603C31.4898 88.3213 31.5008 88.9837 31.5554 89.6432C31.5554 89.9773 31.6485 90.3114 31.6923 90.651C31.7291 90.9933 31.7933 91.3322 31.884 91.6643C32.3765 93.8623 33.3759 95.9147 34.8024 97.6579C36.2289 99.401 38.043 100.787 40.1001 101.704C41.5889 102.347 43.1847 102.705 44.8052 102.762C46.4789 102.854 48.1543 102.613 49.7348 102.055L50.2169 101.874H50.2826L50.3374 101.907L57.2444 105.413L57.0417 105.588C56.3022 103.298 55.5902 101.08 54.9 98.9492V98.8671L54.9603 98.8068C56.6358 97.1192 57.8797 95.0524 58.5863 92.7817C59.2264 90.7058 59.4132 88.5166 59.1341 86.3622C58.8858 84.4476 58.2702 82.5989 57.321 80.9177C56.5029 79.4734 55.4474 78.1773 54.1989 77.0835C53.1689 76.2177 52.0288 75.4921 50.8084 74.9254C49.885 74.5271 48.9233 74.2243 47.9383 74.0216L46.8428 73.8409L46.0486 73.7806L45.5665 73.7477H45.4022C45.4568 73.7417 45.5119 73.7417 45.5665 73.7477H46.054L46.8483 73.7806L47.9437 73.9394C48.941 74.1273 49.9158 74.4192 50.8522 74.8104C52.0936 75.3703 53.2542 76.0943 54.303 76.963C55.5744 78.0519 56.6523 79.3483 57.4908 80.7971C58.4669 82.4964 59.1014 84.3702 59.3586 86.3129C59.6609 88.5005 59.4871 90.7277 58.8492 92.842C58.138 95.1599 56.8749 97.2706 55.1684 98.9931L55.2013 98.8507C55.8914 100.981 56.609 103.2 57.3539 105.484L57.458 105.818L57.1458 105.659L50.2388 102.159H50.3593L49.8663 102.34C48.2554 102.907 46.5489 103.152 44.8435 103.063C43.1881 103 41.5589 102.628 40.0398 101.967C37.1421 100.726 34.7313 98.5694 33.1767 95.8271C32.4613 94.5606 31.9388 93.1945 31.6266 91.7739C31.5411 91.4331 31.477 91.0874 31.4349 90.7386C31.391 90.3936 31.3198 90.054 31.3034 89.7144C31.1552 87.7654 31.3611 85.8057 31.9114 83.9302C32.2573 82.8033 32.7373 81.722 33.341 80.7095C34.3631 78.9543 35.7466 77.4364 37.3997 76.2564C38.6484 75.3734 40.0347 74.7034 41.5023 74.2736L42.3623 74.0545C42.6154 73.9958 42.8713 73.9501 43.1291 73.9175C43.5287 73.8435 43.9334 73.7996 44.3396 73.7861L45.09 73.7587C45.1753 73.7472 45.2614 73.7417 45.3474 73.7423Z" fill="#FFB423"/>
<path d="M48.4696 86.5155H47.4562L45.2653 83.4372V81.416C45.2653 81.416 43.6987 81.3175 43.885 83.963C44.0712 86.6086 43.885 85.9349 43.885 85.9349C43.885 85.9349 40.5602 85.9349 40.2863 86.2362C40.0124 86.5374 39.996 89.7472 39.9577 91.5383C39.9367 91.97 40.0606 92.3965 40.3097 92.7498C40.5588 93.103 40.9188 93.363 41.3325 93.4882C41.4485 93.5204 41.5682 93.5369 41.6885 93.5375C42.5211 93.5375 46.7551 92.8638 46.7551 92.8638H48.5024L48.4696 86.5155Z" fill="#FFB423"/>
<path d="M51.367 85.9733L50.7426 92.8967H49.0117V86.1157L51.367 85.9733Z" fill="#FFB423"/>
<path d="M72.0114 226.923V222.24L63.6145 222.18L63.5433 229.262L64.0637 229.3C66.3806 229.448 75.851 229.667 77.4066 229.185C79.1375 228.649 72.0114 226.923 72.0114 226.923Z" fill="#FFB423"/>
<path d="M77.6038 228.747C77.6038 228.824 74.4597 228.89 70.5872 228.89C66.7147 228.89 63.5707 228.824 63.5707 228.747C63.5707 228.67 66.7147 228.605 70.5872 228.605C74.4597 228.605 77.6038 228.67 77.6038 228.747Z" fill="#263238"/>
<path d="M72.1592 227.882C72.088 227.843 72.1592 227.597 72.329 227.334C72.4988 227.071 72.7289 226.962 72.7836 227.016C72.8384 227.071 72.7234 227.279 72.5591 227.504C72.3947 227.728 72.2304 227.92 72.1592 227.882Z" fill="#263238"/>
<path d="M72.6961 228.188C72.6194 228.188 72.6578 227.882 72.8221 227.591C72.9864 227.301 73.2055 227.126 73.2657 227.17C73.326 227.213 73.2274 227.46 73.074 227.717C72.9207 227.975 72.7673 228.216 72.6961 228.188Z" fill="#263238"/>
<path d="M66.1012 228.725C66.0684 228.725 65.9424 228.627 65.7616 228.418C65.541 228.151 65.2952 227.905 65.0277 227.685C64.7646 227.474 64.4512 227.336 64.1184 227.285C63.861 227.252 63.6967 227.285 63.6802 227.252C63.6638 227.219 63.8226 227.104 64.1239 227.082C64.5215 227.074 64.9093 227.205 65.2194 227.454C65.5099 227.691 65.7549 227.979 65.9424 228.303C66.0684 228.544 66.1341 228.703 66.1012 228.725Z" fill="#263238"/>
<path d="M72.1866 227C72.225 227.066 72.0826 227.23 71.8416 227.318C71.6006 227.405 71.3869 227.372 71.376 227.318C71.365 227.263 71.5348 227.148 71.743 227.071C71.9511 226.994 72.1428 226.934 72.1866 227Z" fill="#263238"/>
<path d="M72.0552 226.545C72.0552 226.627 71.8361 226.693 71.5513 226.699C71.2664 226.704 71.0419 226.638 71.0473 226.562C71.0528 226.485 71.2774 226.414 71.5513 226.408C71.8251 226.403 72.0442 226.469 72.0552 226.545Z" fill="#263238"/>
<path d="M92.6885 226.923V222.24L84.2917 222.18L84.2205 229.191L84.7408 229.229C87.0578 229.377 96.5337 229.667 98.0838 229.185C99.8146 228.649 92.6885 226.923 92.6885 226.923Z" fill="#FFB423"/>
<path d="M98.2809 228.758C98.2809 228.835 95.1424 228.901 91.2644 228.901C87.3864 228.901 84.2533 228.835 84.2533 228.758C84.2533 228.681 87.3918 228.616 91.2644 228.616C95.1369 228.616 98.2809 228.681 98.2809 228.758Z" fill="#263238"/>
<path d="M92.8364 227.882C92.7707 227.843 92.8364 227.597 93.0062 227.334C93.176 227.071 93.4061 226.962 93.4609 227.016C93.5156 227.071 93.4006 227.279 93.2363 227.504C93.072 227.728 92.9076 227.92 92.8364 227.882Z" fill="#263238"/>
<path d="M93.3732 228.188C93.302 228.188 93.3349 227.882 93.5047 227.591C93.6745 227.301 93.8881 227.126 93.9483 227.17C94.0086 227.213 93.9045 227.46 93.7512 227.717C93.5978 227.975 93.4499 228.216 93.3732 228.188Z" fill="#263238"/>
<path d="M86.7784 228.725C86.7456 228.725 86.6251 228.627 86.4388 228.418C86.2182 228.151 85.9724 227.905 85.7049 227.685C85.4418 227.474 85.1283 227.336 84.7956 227.285C84.5437 227.252 84.3739 227.285 84.3574 227.252C84.341 227.219 84.4998 227.104 84.8011 227.082C85.1987 227.074 85.5865 227.205 85.8966 227.454C86.1886 227.69 86.4338 227.978 86.6196 228.303C86.7456 228.544 86.8113 228.703 86.7784 228.725Z" fill="#263238"/>
<path d="M92.8638 227C92.9022 227.066 92.7598 227.23 92.5187 227.318C92.2777 227.405 92.0641 227.372 92.0532 227.318C92.0422 227.263 92.212 227.148 92.4202 227.071C92.6283 226.994 92.82 226.934 92.8638 227Z" fill="#263238"/>
<path d="M92.7434 226.545C92.7434 226.627 92.5243 226.693 92.2395 226.699C91.9546 226.704 91.7355 226.638 91.741 226.562C91.7465 226.485 91.9656 226.414 92.2395 226.408C92.5133 226.403 92.7434 226.469 92.7434 226.545Z" fill="#263238"/>
<path d="M123.625 87.852C123.406 87.6274 122.864 87.737 122.864 87.737C122.918 87.4216 122.918 87.0993 122.864 86.7839C122.765 86.4772 122.075 86.5374 122.075 86.5374C122.043 86.2791 122.043 86.0179 122.075 85.7596C122.08 85.7024 122.068 85.6448 122.04 85.5948C122.011 85.5448 121.968 85.5048 121.916 85.4803C121.589 85.3471 121.239 85.2837 120.886 85.2941C120.465 84.9928 122.173 82.5992 122.809 81.8323C123.444 81.0655 123.329 80.4685 122.765 80.4685C122.376 80.4685 120.382 82.769 119.769 83.5413C119.155 84.3136 117.529 86.4607 117.474 84.7463C117.419 83.0319 116.729 81.7392 116.296 81.5201C115.863 81.301 115.403 81.8159 115.639 82.2924C115.846 82.8338 115.975 83.4018 116.022 83.9795C116.082 84.4396 116.061 84.9066 115.962 85.3598C115.78 86.2031 115.533 87.0308 115.223 87.8356H115.179C115.179 87.8356 103.227 99.2998 102.362 100.116C101.589 100.85 86.0555 99.245 82.9388 98.9164C81.8798 98.7614 80.8103 98.6881 79.74 98.6973C78.3871 98.7575 78.1461 98.9492 76.7987 98.9656C73.3958 99.0034 70.0008 99.3019 66.6436 99.8585C65.1234 100.117 63.7034 100.788 62.5385 101.798C61.3736 102.809 60.5086 104.119 60.0378 105.588C56.8993 115.392 49.7896 138.6 48.5353 151.636C47.5875 153.355 46.7318 155.123 45.9719 156.933C45.09 159.332 45.3036 159.414 45.5994 159.469C46.3991 159.617 47.3084 155.312 47.648 156.352C47.9876 157.393 45.9226 161.485 46.7606 161.605C47.8561 161.759 48.727 157.223 48.8311 156.862C48.9351 156.5 49.4774 156.615 49.3788 156.955C49.22 157.437 47.6808 162.547 48.7544 162.712C49.346 162.799 49.4117 161.72 49.4117 161.72C49.4117 161.72 50.5072 156.829 51.0056 156.927C51.5041 157.026 50.9727 159.913 50.7208 160.877C50.4688 161.841 50.8194 162.328 51.3342 162.093C51.6848 161.928 52.5228 158.998 52.7529 158.045C52.9829 157.092 53.5581 154.452 54.3304 155.98C55.1027 157.508 56.2749 158.395 56.7569 158.417C56.8655 158.405 56.9679 158.36 57.0508 158.289C57.1338 158.218 57.1936 158.123 57.2224 158.018C57.2513 157.912 57.248 157.801 57.2128 157.697C57.1777 157.594 57.1124 157.503 57.0253 157.437C56.6107 157.032 56.2548 156.571 55.9681 156.068C55.7126 155.675 55.5273 155.242 55.4204 154.786C55.1997 153.877 55.0712 152.949 55.037 152.014L54.9493 151.467C56.1763 145.392 59.7092 127.563 64.8086 116.176L66.901 120.481L67.8103 123.669L62.2343 137.433L86.0171 137.121L82.4678 123.461L86.7785 109.219C91.4398 109.323 103.408 109.499 105.402 108.595C107.91 107.499 120.886 91.1111 120.886 91.1111C121.732 90.4538 122.542 89.7517 123.313 89.0077C123.313 89.0077 124.101 88.345 123.625 87.852Z" fill="#FFBE9D"/>
<path d="M61.188 127.262C61.8782 124.907 65.4221 113.262 65.4221 113.262C65.4221 113.262 67.1639 122.754 66.7038 123.899C66.2806 124.879 65.7806 125.824 65.2084 126.725C61.188 132.843 61.7139 135.905 61.7139 135.905L86.0061 135.166C86.0609 131.77 84.0507 123.871 83.6344 122.612C83.2181 121.352 84.6039 117.227 84.6039 117.227C84.6039 117.227 87.3426 114.439 87.244 113.004C87.192 111.715 87.0326 110.433 86.7675 109.17L101.556 109.718L101.091 99.6941L79.8495 97.5689C79.1101 99.6558 72.4222 98.6315 72.4222 98.6315C65.203 98.8725 64.7538 100.198 61.7522 102.531C58.7506 104.865 53.7826 124.89 53.7826 124.89L61.188 127.262Z" fill="#FFB423"/>
<path d="M75.5497 124.89C75.1287 124.965 74.7 124.987 74.2735 124.956C73.4793 124.956 72.3893 124.901 71.1897 124.781C69.9902 124.66 68.9056 124.49 68.1333 124.337C67.7075 124.282 67.2899 124.175 66.89 124.019C67.3182 124.019 67.7455 124.06 68.1662 124.14C68.944 124.238 70.023 124.375 71.2171 124.496C72.4112 124.616 73.4957 124.698 74.279 124.753C74.7059 124.759 75.1314 124.805 75.5497 124.89Z" fill="#263238"/>
<path d="M77.2148 122.825C76.7937 123.032 76.3484 123.184 75.8893 123.28C73.704 123.854 71.4494 124.121 69.1904 124.074C68.723 124.089 68.2555 124.045 67.7992 123.943C68.2605 123.884 68.7256 123.861 69.1904 123.871C70.0504 123.844 71.2335 123.784 72.5371 123.63C73.8408 123.477 75.002 123.258 75.8236 123.083C76.2799 122.961 76.7451 122.875 77.2148 122.825Z" fill="#263238"/>
<path d="M85.3871 113.612C85.376 114.03 85.3191 114.445 85.2173 114.85C85.0749 115.611 84.8558 116.652 84.5765 117.791C84.2971 118.931 84.0287 119.982 83.7877 120.695C83.6908 121.102 83.5475 121.497 83.3605 121.872C83.391 121.456 83.4682 121.044 83.5905 120.645C83.7987 119.791 84.0342 118.805 84.2971 117.726C84.56 116.647 84.812 115.661 85.0201 114.806C85.0943 114.395 85.2175 113.994 85.3871 113.612Z" fill="#263238"/>
<path d="M61.4455 125.865C60.1784 125.669 58.9278 125.378 57.7045 124.994C56.4545 124.702 55.2278 124.317 54.0346 123.844C55.3012 124.043 56.5515 124.334 57.7757 124.715C59.026 125.006 60.2527 125.391 61.4455 125.865Z" fill="#263238"/>
<path d="M87.0304 109.05C86.8238 109.085 86.6126 109.085 86.406 109.05C85.8339 108.991 85.2721 108.856 84.7354 108.65C83.8394 108.313 83.0236 107.793 82.3407 107.122C81.6577 106.451 81.1226 105.645 80.7698 104.755C80.3797 103.776 80.2132 102.723 80.2823 101.671C80.3067 100.804 80.566 99.96 81.0327 99.2286C81.3609 98.7359 81.8511 98.3735 82.4184 98.2043C82.57 98.1625 82.7268 98.1422 82.884 98.1441C82.9936 98.1441 83.0484 98.1441 83.0484 98.1441C83.0484 98.1441 82.8183 98.1441 82.4513 98.2919C81.9308 98.4842 81.4894 98.8447 81.197 99.3162C80.4521 100.488 80.2439 102.63 81.0381 104.629C81.4078 105.572 81.9865 106.418 82.7307 107.105C83.3404 107.667 84.0427 108.119 84.8066 108.442C85.5234 108.725 86.2692 108.929 87.0304 109.05Z" fill="#263238"/>
<path d="M99.7982 109.521C99.6612 107.841 99.6173 106.155 99.6668 104.47C99.6238 102.787 99.675 101.103 99.8201 99.4258C99.9572 101.104 100.001 102.788 99.9516 104.47C99.9976 106.155 99.9464 107.842 99.7982 109.521Z" fill="#263238"/>
<path d="M79.7071 98.1824C79.7674 96.9609 79.8934 95.5806 79.8934 95.5806C79.8934 95.5806 82.9169 95.2465 83.0977 92.1244C83.2784 89.0023 83.0977 81.7995 83.0977 81.7995L77.6203 78.9951L71.5403 83.7768L72.477 99.3874L78.053 99.7434C78.4792 99.7552 78.8927 99.5975 79.2028 99.3049C79.5129 99.0122 79.6943 98.6086 79.7071 98.1824Z" fill="#FFBE9D"/>
<path d="M80.2494 89.6541C80.2494 89.6541 80.2494 89.7143 80.2001 89.7855C80.1593 89.8372 80.1066 89.8781 80.0465 89.9049C79.9864 89.9316 79.9207 89.9433 79.855 89.9389C79.5045 89.9389 79.1649 89.5336 79.0444 89.0625C78.9871 88.8342 78.9871 88.5952 79.0444 88.3669C79.0556 88.2672 79.0915 88.1719 79.1489 88.0897C79.2063 88.0074 79.2833 87.9408 79.373 87.8958C79.4467 87.8654 79.5294 87.8654 79.603 87.8958C79.6577 87.923 79.7019 87.9672 79.729 88.0218C79.7674 88.1149 79.729 88.1752 79.729 88.1697C79.729 88.1642 79.729 88.1149 79.6743 88.0602C79.6456 88.0209 79.6035 87.9936 79.556 87.9835C79.5085 87.9734 79.4589 87.9812 79.4168 88.0054C79.3496 88.046 79.2938 88.103 79.2545 88.171C79.2153 88.239 79.1938 88.3158 79.1922 88.3943C79.1461 88.598 79.1461 88.8095 79.1922 89.0132C79.3018 89.4405 79.5976 89.7855 79.8605 89.8184C79.9119 89.8254 79.9643 89.8217 80.0142 89.8075C80.0641 89.7934 80.1106 89.7691 80.1508 89.7362C80.2165 89.6924 80.2384 89.6486 80.2494 89.6541Z" fill="#EB996E"/>
<path d="M84.9764 80.1124C84.5546 78.6774 83.0264 77.9653 81.6352 77.5709C79.5154 76.9684 77.2259 76.7055 75.1554 77.4669C73.0849 78.2282 70.5982 79.5647 70.5982 81.8488C69.3768 81.7502 68.6756 82.8183 68.1936 84.1438C67.8855 84.9514 67.7008 85.8008 67.6459 86.6634C67.4925 89.6541 66.6545 93.784 64.7155 95.975C63.62 97.1965 62.1028 98.04 61.4783 99.5627C60.9306 100.883 61.2154 102.449 60.706 103.786C60.2514 104.963 59.249 105.801 58.5151 106.826C57.7673 107.988 57.3272 109.321 57.2362 110.699C57.1452 112.078 57.4062 113.458 57.9947 114.708C58.5875 115.926 59.422 117.011 60.4475 117.896C61.473 118.781 62.6679 119.448 63.9596 119.856C66.5181 120.635 69.2465 120.661 71.8197 119.933C73.7509 119.471 75.5524 118.578 77.0889 117.32C78.6611 116.037 79.741 114.248 80.1453 112.259C80.5342 110.025 79.9098 107.751 79.4442 105.528C77.9872 98.5001 78.4035 98.1331 80.2439 91.6095C80.2877 91.4945 80.3096 91.374 80.3425 91.259C80.3754 91.1439 80.3918 91.0892 80.4137 91.0015C80.466 90.7436 80.4935 90.4814 80.4959 90.2182C80.2271 90.3182 79.9353 90.3394 79.6549 90.2792C79.3745 90.219 79.1171 90.0801 78.9129 89.8786C78.7083 89.6639 78.5656 89.3977 78.5 89.1084C78.4345 88.8191 78.4484 88.5174 78.5404 88.2354C78.6697 87.927 78.8622 87.6491 79.1057 87.4199C79.3491 87.1906 79.638 87.015 79.9536 86.9044C80.5616 86.6525 81.2134 86.521 81.8104 86.2417C83.0757 85.6391 83.9521 84.3903 84.5491 83.0812C85.04 82.1739 85.1915 81.1213 84.9764 80.1124Z" fill="#263238"/>
<path d="M80.4684 89.802C80.5842 89.9729 80.6798 90.1567 80.7533 90.3497C80.9176 90.6948 81.1367 91.1823 81.3777 91.7464L81.4215 91.8505H81.3065L80.7587 91.8998C80.3808 91.8998 80.0631 91.971 79.6907 91.9655C79.6582 91.9582 79.6282 91.9429 79.6033 91.9208C79.5784 91.8988 79.5594 91.8709 79.5482 91.8395C79.5319 91.7897 79.5319 91.736 79.5482 91.6862C79.5609 91.6124 79.5774 91.5392 79.5975 91.4671L79.6961 91.0782C79.7457 90.8188 79.8228 90.5654 79.9262 90.3223C79.916 90.5868 79.8774 90.8494 79.8112 91.1056L79.7345 91.4945C79.7071 91.6259 79.6578 91.8286 79.7345 91.8122C80.0083 91.8122 80.3972 91.7519 80.7587 91.73L81.3065 91.6807L81.2353 91.8012C80.9998 91.2535 80.8026 90.7386 80.6875 90.3826C80.5866 90.2007 80.5128 90.0051 80.4684 89.802Z" fill="#FFB423"/>
<path d="M61.7139 135.905L86.0062 135.166L96.5776 176.432L94.6331 223.768H81.7886L83.3606 177.44L73.9668 148.711L75.4129 225.603L62.4314 225.795L61.0676 153.521C61.0073 151.51 60.35 146.981 60.5965 144.987L61.7139 135.905Z" fill="#263238"/>
<path d="M77.1985 149.297C76.8008 149.322 76.4016 149.299 76.0099 149.226C75.2759 149.139 74.2735 148.985 73.1726 148.766C72.0716 148.547 71.0857 148.295 70.3736 148.092C69.993 148.009 69.6248 147.876 69.2781 147.698C69.2781 147.616 71.0638 148.043 73.2547 148.487C75.4457 148.93 77.2094 149.215 77.1985 149.297Z" fill="#455A64"/>
<path d="M94.5016 221.172C94.5016 221.249 91.5931 221.314 88.0054 221.314C84.4177 221.314 81.5037 221.249 81.5037 221.172C81.5037 221.095 84.4122 221.029 88.0054 221.029C91.5986 221.029 94.5016 221.09 94.5016 221.172Z" fill="#455A64"/>
<path d="M75.2977 223.604C75.2977 223.686 72.4714 223.746 68.9878 223.746C65.5042 223.746 62.6833 223.686 62.6833 223.604C62.6833 223.522 65.5096 223.461 68.9878 223.461C72.4659 223.461 75.2977 223.527 75.2977 223.604Z" fill="#455A64"/>
<path d="M73.6217 223.407C73.545 223.407 73.2054 206.608 72.8603 185.887C72.5153 165.166 72.3126 148.355 72.3838 148.355C72.455 148.355 72.8056 165.149 73.1452 185.881C73.4848 206.613 73.7039 223.407 73.6217 223.407Z" fill="#455A64"/>
<path d="M92.7762 221.172C92.7702 221.097 92.7702 221.022 92.7762 220.947V220.29C92.7762 219.699 92.8201 218.85 92.8529 217.77C92.9296 215.58 93.0392 212.397 93.1761 208.497C93.4719 200.654 93.8882 189.841 94.3428 177.906C94.3428 177.791 94.3428 177.681 94.3428 177.583V177.621C91.4671 166.119 88.8654 155.679 86.9757 148.125L84.7847 139.192C84.5328 138.146 84.341 137.329 84.2041 136.76C84.1384 136.491 84.0946 136.283 84.0562 136.124C84.0349 136.053 84.022 135.98 84.0179 135.905C84.0463 135.974 84.0683 136.046 84.0836 136.119C84.1274 136.272 84.1822 136.48 84.2589 136.743C84.4068 137.291 84.6204 138.124 84.8943 139.164C85.442 141.279 86.2143 144.324 87.1783 148.076C89.0845 155.624 91.7136 166.036 94.6276 177.555V177.594C94.6276 177.692 94.6276 177.807 94.6276 177.917C94.1401 189.852 93.6964 200.659 93.3733 208.503C93.2035 212.408 93.0611 215.569 92.9625 217.77C92.9077 218.866 92.8639 219.699 92.8365 220.29C92.8365 220.569 92.8036 220.789 92.7982 220.947C92.799 221.023 92.7916 221.098 92.7762 221.172Z" fill="#455A64"/>
<path d="M88.586 176.619C87.6634 176.922 86.713 177.133 85.7487 177.249C84.5656 177.451 83.5577 177.594 83.1031 177.616V177.506C83.251 177.55 83.3277 177.577 83.3277 177.599C83.3277 177.621 83.2346 177.599 83.0812 177.599H82.7526L83.0812 177.501C83.5084 177.375 84.5163 177.166 85.6994 176.953C86.6483 176.747 87.6152 176.635 88.586 176.619Z" fill="#455A64"/>
<path d="M88.3613 178.191C87.507 178.23 86.6508 178.191 85.8034 178.076C84.9478 178.058 84.0955 177.965 83.2564 177.796C84.9682 177.657 86.6913 177.79 88.3613 178.191Z" fill="#455A64"/>
<path opacity="0.2" d="M61.6098 136.776C61.8975 137.146 62.2599 137.45 62.6733 137.67C63.0866 137.89 63.5418 138.02 64.0089 138.052C64.9873 138.168 65.9769 138.15 66.9503 137.998C73.2219 137.302 79.866 136.661 86.0061 135.166C78.0584 135.609 69.6616 135.462 61.7139 135.905L61.6317 136.584" fill="black"/>
<g opacity="0.2">
<path d="M69.7985 147.977L74.279 165.363L73.9668 148.711L69.7985 147.977Z" fill="black"/>
</g>
</svg>
