<svg width="38" height="38" viewBox="0 0 38 38" fill="none" xmlns="http://www.w3.org/2000/svg">
<circle cx="19" cy="19" r="19" fill="#FFD688"/>
<path d="M26.4067 19.7275C26.2616 19.5624 26.1816 19.3502 26.1816 19.1304C26.1816 18.9106 26.2616 18.6984 26.4067 18.5332L27.5648 17.2304C27.6924 17.088 27.7716 16.9089 27.7912 16.7188C27.8107 16.5286 27.7694 16.3371 27.6734 16.1718L25.8638 13.0413C25.7687 12.8762 25.624 12.7454 25.4501 12.6674C25.2763 12.5894 25.0823 12.5683 24.8957 12.6071L23.1948 12.9509C22.9784 12.9956 22.753 12.9595 22.5614 12.8495C22.3697 12.7395 22.2249 12.5632 22.1543 12.3537L21.6024 10.698C21.5417 10.5183 21.4261 10.3622 21.2718 10.2518C21.1176 10.1414 20.9326 10.0823 20.7429 10.0828H17.1238C16.9265 10.0725 16.7313 10.127 16.5679 10.2381C16.4045 10.3492 16.282 10.5107 16.2191 10.698L15.7124 12.3537C15.6418 12.5632 15.497 12.7395 15.3054 12.8495C15.1137 12.9595 14.8884 12.9956 14.6719 12.9509L12.9257 12.6071C12.7489 12.5821 12.5686 12.61 12.4076 12.6873C12.2466 12.7645 12.1121 12.8877 12.021 13.0413L10.2115 16.1718C10.113 16.3353 10.0687 16.5257 10.085 16.7158C10.1012 16.9059 10.1771 17.086 10.3019 17.2304L11.451 18.5332C11.596 18.6984 11.676 18.9106 11.676 19.1304C11.676 19.3502 11.596 19.5624 11.451 19.7275L10.3019 21.0304C10.1771 21.1748 10.1012 21.3549 10.085 21.545C10.0687 21.7351 10.113 21.9255 10.2115 22.089L12.021 25.2194C12.1161 25.3845 12.2608 25.5154 12.4347 25.5934C12.6085 25.6714 12.8025 25.6925 12.9891 25.6537L14.69 25.3099C14.9065 25.2652 15.1318 25.3012 15.3235 25.4112C15.5151 25.5213 15.6599 25.6976 15.7305 25.9071L16.2824 27.5628C16.3454 27.75 16.4679 27.9116 16.6313 28.0226C16.7946 28.1337 16.9899 28.1883 17.1872 28.178H20.8062C20.9959 28.1785 21.1809 28.1194 21.3352 28.009C21.4894 27.8986 21.605 27.7425 21.6657 27.5628L22.2176 25.9071C22.2882 25.6976 22.433 25.5213 22.6247 25.4112C22.8164 25.3012 23.0417 25.2652 23.2581 25.3099L24.9591 25.6537C25.1456 25.6925 25.3396 25.6714 25.5135 25.5934C25.6873 25.5154 25.8321 25.3845 25.9272 25.2194L27.7367 22.089C27.8328 21.9237 27.874 21.7322 27.8545 21.542C27.835 21.3519 27.7557 21.1727 27.6281 21.0304L26.4067 19.7275ZM25.0586 20.9399L25.7824 21.7542L24.6243 23.7628L23.5567 23.5456C22.9051 23.4124 22.2272 23.5231 21.6518 23.8567C21.0764 24.1903 20.6435 24.7235 20.4353 25.3552L20.0915 26.3685H17.7753L17.4495 25.3371C17.2413 24.7054 16.8084 24.1722 16.233 23.8386C15.6576 23.505 14.9797 23.3943 14.3281 23.5275L13.2605 23.7447L12.0843 21.7452L12.8081 20.9309C13.2532 20.4332 13.4993 19.789 13.4993 19.1213C13.4993 18.4537 13.2532 17.8095 12.8081 17.3118L12.0843 16.4975L13.2424 14.5071L14.31 14.7242C14.9617 14.8574 15.6395 14.7467 16.2149 14.4131C16.7903 14.0796 17.2232 13.5463 17.4315 12.9147L17.7753 11.8923H20.0915L20.4353 12.9237C20.6435 13.5554 21.0764 14.0886 21.6518 14.4222C22.2272 14.7558 22.9051 14.8665 23.5567 14.7332L24.6243 14.5161L25.7824 16.5247L25.0586 17.339C24.6185 17.8355 24.3755 18.476 24.3755 19.1394C24.3755 19.8029 24.6185 20.4434 25.0586 20.9399ZM18.9334 15.5113C18.2176 15.5113 17.5179 15.7236 16.9227 16.1213C16.3276 16.5189 15.8637 17.0841 15.5898 17.7454C15.3159 18.4067 15.2442 19.1344 15.3838 19.8364C15.5235 20.5385 15.8682 21.1833 16.3743 21.6894C16.8804 22.1956 17.5253 22.5403 18.2273 22.6799C18.9293 22.8195 19.657 22.7479 20.3183 22.474C20.9796 22.2 21.5448 21.7362 21.9425 21.141C22.3402 20.5459 22.5524 19.8462 22.5524 19.1304C22.5524 18.1706 22.1711 17.25 21.4924 16.5713C20.8137 15.8926 19.8932 15.5113 18.9334 15.5113ZM18.9334 20.9399C18.5755 20.9399 18.2256 20.8338 17.928 20.635C17.6305 20.4361 17.3985 20.1535 17.2616 19.8229C17.1246 19.4922 17.0888 19.1284 17.1586 18.7774C17.2284 18.4264 17.4008 18.1039 17.6538 17.8509C17.9069 17.5978 18.2293 17.4255 18.5803 17.3556C18.9314 17.2858 19.2952 17.3217 19.6258 17.4586C19.9565 17.5956 20.2391 17.8275 20.4379 18.1251C20.6368 18.4226 20.7429 18.7725 20.7429 19.1304C20.7429 19.6103 20.5522 20.0706 20.2129 20.4099C19.8735 20.7493 19.4133 20.9399 18.9334 20.9399Z" fill="white"/>
</svg>
