<svg width="317" height="129" viewBox="0 0 317 129" fill="none" xmlns="http://www.w3.org/2000/svg">
<path d="M145.667 74H129.222C124.7 74 121 70.3 121 65.7778V8.22222C121 3.7 124.7 0 129.222 0H145.667C150.189 0 153.889 3.7 153.889 8.22222V65.7778C153.889 70.3 150.189 74 145.667 74ZM170.333 74H186.778C191.3 74 195 70.3 195 65.7778V45.2222C195 40.7 191.3 37 186.778 37H170.333C165.811 37 162.111 40.7 162.111 45.2222V65.7778C162.111 70.3 165.811 74 170.333 74ZM195 20.5556V8.22222C195 3.7 191.3 0 186.778 0H170.333C165.811 0 162.111 3.7 162.111 8.22222V20.5556C162.111 25.0778 165.811 28.7778 170.333 28.7778H186.778C191.3 28.7778 195 25.0778 195 20.5556Z" fill="#FFB423"/>
<path d="M118.576 95.94C120.796 95.94 122.736 96.38 124.396 97.26C126.056 98.14 127.336 99.38 128.236 100.98C129.156 102.56 129.616 104.39 129.616 106.47C129.616 108.53 129.156 110.36 128.236 111.96C127.336 113.56 126.046 114.8 124.366 115.68C122.706 116.56 120.776 117 118.576 117H110.686V95.94H118.576ZM118.246 112.56C120.186 112.56 121.696 112.03 122.776 110.97C123.856 109.91 124.396 108.41 124.396 106.47C124.396 104.53 123.856 103.02 122.776 101.94C121.696 100.86 120.186 100.32 118.246 100.32H115.816V112.56H118.246ZM139.613 100.05V104.31H146.483V108.27H139.613V112.89H147.383V117H134.483V95.94H147.383V100.05H139.613ZM172.484 95.94L165.014 117H158.594L151.124 95.94H156.584L161.804 111.84L167.054 95.94H172.484ZM181.758 95.94V117H176.628V95.94H181.758ZM206.315 117H201.185L192.605 104.01V117H187.475V95.94H192.605L201.185 108.99V95.94H206.315V117Z" fill="#FFB423"/>
</svg>
