<svg width="19" height="19" viewBox="0 0 19 19" fill="none" xmlns="http://www.w3.org/2000/svg">
<g clip-path="url(#clip0_714_393)">
<path d="M4.77969 14.3985C4.63125 14.3688 4.5125 14.3392 4.36406 14.2798C4.21563 14.2204 4.09688 14.1907 3.97813 14.1313C3.71094 14.0126 3.47344 13.8642 3.23594 13.686C2.76094 13.3595 2.375 12.9142 2.07813 12.3798C1.78125 11.8751 1.60313 11.2813 1.57344 10.7173C1.54375 10.4204 1.57344 10.1532 1.60313 9.85635C1.63281 9.70791 1.6625 9.58916 1.69219 9.44072C1.72188 9.29228 1.78125 9.17354 1.81094 9.0251L1.84063 9.44072C1.84063 9.58916 1.87031 9.70791 1.9 9.85635C1.92969 10.1235 1.98906 10.3907 2.04844 10.6282C2.16719 11.1329 2.34531 11.6079 2.6125 12.0532C2.87969 12.4985 3.17656 12.9142 3.5625 13.3001C3.74063 13.4782 3.94844 13.6563 4.15625 13.8345C4.24531 13.9235 4.36406 14.0126 4.48281 14.1017L4.77969 14.3985ZM4.69063 15.4673C4.60156 15.5267 4.48281 15.5563 4.36406 15.586C4.24531 15.6157 4.15625 15.6454 4.0375 15.6454C3.82969 15.6751 3.59219 15.7048 3.35469 15.6751C2.90938 15.6454 2.43438 15.5267 2.04844 15.3188C1.63281 15.111 1.27656 14.7845 1.03906 14.3985C0.920313 14.2204 0.801563 14.0126 0.7125 13.8048C0.682813 13.7157 0.653125 13.597 0.623437 13.4782C0.623437 13.3892 0.59375 13.3001 0.59375 13.1813C0.682813 13.2704 0.742188 13.3595 0.801563 13.4188C0.890625 13.5079 0.95 13.597 1.00938 13.6563C1.15781 13.8048 1.27656 13.9532 1.425 14.072C1.72188 14.3392 2.01875 14.5767 2.375 14.7548C2.70156 14.9329 3.0875 15.0813 3.44375 15.2001C3.62188 15.2595 3.82969 15.2892 4.0375 15.3485C4.12656 15.3782 4.24531 15.3782 4.33438 15.4079C4.48281 15.4376 4.57188 15.4376 4.69063 15.4673ZM11.4 1.03916C11.5484 1.06885 11.6672 1.12822 11.8156 1.1876C11.9641 1.24697 12.0828 1.30635 12.2016 1.36572C12.4688 1.51416 12.7063 1.6626 12.9438 1.84072C13.4188 2.19697 13.8047 2.67197 14.0719 3.20635C14.3391 3.74072 14.4875 4.33447 14.4875 4.89854C14.4875 5.19541 14.4578 5.4626 14.3984 5.75947C14.3688 5.90791 14.3391 6.02666 14.2797 6.1751C14.2203 6.32353 14.1906 6.44229 14.1313 6.56104L14.1016 6.14541C14.1016 5.99697 14.1016 5.87822 14.0719 5.72978L13.9828 4.92822C13.8938 4.42354 13.7156 3.91885 13.4781 3.44385C13.2406 2.96885 12.9438 2.55322 12.5875 2.16729C12.4094 1.95947 12.2016 1.78135 12.0234 1.57354C11.9344 1.48447 11.8156 1.39541 11.6969 1.30635L11.4 1.03916ZM13.9828 0.92041C14.1016 0.950098 14.1906 0.979785 14.2797 1.03916C14.3688 1.06885 14.4875 1.12822 14.5766 1.1876C14.7547 1.30635 14.9328 1.4251 15.1109 1.57354C15.4375 1.87041 15.7047 2.22666 15.8531 2.64229C16.0313 3.05791 16.0906 3.50322 16.0313 3.94854C16.0016 4.15635 15.9422 4.36416 15.8828 4.57197C15.8531 4.66104 15.7938 4.77978 15.7641 4.86885C15.7047 4.95791 15.675 5.04697 15.5859 5.13603V4.54229C15.5859 4.33447 15.5563 4.15635 15.5563 3.97822C15.4969 3.59228 15.4375 3.23604 15.2891 2.90947C15.1406 2.55322 14.9625 2.25635 14.7547 1.92979C14.6359 1.78135 14.5172 1.60322 14.3984 1.45479C14.3391 1.36572 14.2797 1.30635 14.1906 1.21729C14.1313 1.06885 14.0422 0.979785 13.9828 0.92041Z" fill="#42ADE2"/>
<path d="M2.96874 5.3436C2.37499 5.61079 2.16718 6.32329 2.43436 6.91704L6.17499 14.7248L8.25311 13.7452L4.51249 5.90766C4.2453 5.31391 3.56249 5.04673 2.96874 5.3436ZM12.7953 11.5483L14.9922 10.5092L10.7172 1.60298C10.4203 1.00923 9.7078 0.742039 9.08436 1.03891C8.49061 1.33579 8.22343 2.04829 8.5203 2.67173L12.7953 11.5483Z" fill="#FFDD67"/>
<path d="M9.11404 1.00946C9.05466 1.03915 8.99529 1.06884 8.93591 1.12821C9.49998 0.979776 10.0937 1.24696 10.3609 1.78134L14.6359 10.6876L15.0218 10.5095L10.7469 1.60321C10.45 0.979776 9.73748 0.712589 9.11404 1.00946Z" fill="#EBA352"/>
<path d="M8.25316 13.7156L10.5391 12.6172L6.17504 3.5328C5.87816 2.90936 5.10629 2.61248 4.48285 2.90936C3.85942 3.20623 3.59223 3.97811 3.8891 4.60155L8.25316 13.7156Z" fill="#FFDD67"/>
<path d="M4.48281 2.93901C4.42344 2.9687 4.36406 2.99839 4.30469 3.05776C4.86875 2.90933 5.52188 3.17651 5.78906 3.74058L8.49062 9.41089L9.14375 9.79683L6.175 3.56245C5.87812 2.90933 5.13594 2.64214 4.48281 2.93901Z" fill="#EBA352"/>
<path d="M10.1829 11.9049L12.4688 10.8065L8.10473 1.72209C7.80785 1.09865 7.03598 0.801776 6.41254 1.12834C5.7891 1.42521 5.52192 2.19709 5.81879 2.82053L10.1829 11.9049Z" fill="#FFDD67"/>
<path d="M6.41253 1.09819C6.35315 1.12788 6.29378 1.18726 6.2344 1.21694C6.79846 1.06851 7.45159 1.33569 7.71878 1.89976L10.7766 8.31226L11.4297 8.69819L8.10471 1.72163C7.80784 1.06851 7.03596 0.801319 6.41253 1.09819ZM2.96877 5.34351C2.9094 5.37319 2.85002 5.40288 2.79065 5.46226C3.32502 5.31382 3.88909 5.58101 4.12659 6.11538L6.35315 10.7763L7.00628 11.1623L4.51252 5.93726C4.24534 5.31382 3.56252 5.04663 2.96877 5.34351Z" fill="#EBA352"/>
<path d="M18.05 4.45312C17.2484 3.82968 15.9422 4.51249 15.289 6.64999C14.8437 8.13437 14.7843 8.57968 13.8343 9.02499L13.3 7.92656C13.3 7.92656 4.86872 11.9937 5.19528 12.6469C5.19528 12.6469 6.20466 15.7937 7.92653 17.2484C10.4797 19.4453 16.4468 17.1 16.714 11.4297C16.8625 8.13437 18.9109 5.13593 18.05 4.45312Z" fill="#FFDD67"/>
<path d="M18.05 4.45293C17.9016 4.33418 17.7235 4.2748 17.5453 4.24512C17.575 4.2748 17.6344 4.2748 17.6641 4.30449C18.5547 4.9873 17.6344 6.56074 17.1297 7.98574C16.7141 9.11387 16.3578 10.2717 16.4172 11.3998C16.6547 16.3279 11.6969 18.6732 8.72815 17.7826C11.6375 18.9998 17.0406 16.6842 16.8031 11.5482C16.7438 10.4201 17.0703 9.32168 17.5156 8.13418C17.9906 6.70918 18.911 5.13574 18.05 4.45293Z" fill="#EBA352"/>
<path d="M14.1016 8.90625C12.261 9.11406 9.55941 11.7563 11.4594 14.6359C10.0641 11.7266 12.35 9.76719 13.8047 9.08438C13.9532 8.96563 14.1016 8.90625 14.1016 8.90625Z" fill="#EBA352"/>
</g>
<defs>
<clipPath id="clip0_714_393">
<rect width="19" height="19" fill="white"/>
</clipPath>
</defs>
</svg>
